<svg xmlns="http://www.w3.org/2000/svg" viewBox="0 0 1280 640"><defs><style>.c{fill:#f06292}.d{fill:#fff}.e,.n,.o{fill:none;stroke-miterlimit:10;stroke-width:3px}.e{stroke:#f06292}.g{fill:#ba68c8}.h{fill:#42a5f5}.n{stroke-dasharray:24;stroke:#42a5f5}.o{stroke:#ec407a}</style></defs><path fill="#263238" d="M3 3h1274v634H3z"/><path d="M1274 6v628H6V6h1268m6-6H0v640h1280V0Z" fill="#66bb6a"/><path class="c" d="M951 89c15.3-.3 30.5-2 45.7-3.3 17.5-1.5 35-2.2 52.6-1.1q8.4.5 16.8 1.5l2.3.3h.9c1.6.3-1.3-.1.2 0s3 .5 4.5.7c3.1.5 6.3 1 9.4 1.7V77.2c-4.6 1-9.2 1.8-13.8 2.5l-3 .5-1.4.2h-.8c1.6-.3.7 0 .3 0a235 235 0 0 1-28.3 2c-14.6.3-29.1-.4-43.7-.2q-15.5.2-31 1.4c-3 .3-6.1 2.6-6 6a6.1 6.1 0 0 0 6 6l44.8-.2 41-.1 26.5-.3V83q-24.6 1.4-49.2 2.4c-15.4.6-30.7 1.2-46 2L950 88.9c-3.1.1-6.1 2.6-6 6a6.1 6.1 0 0 0 6 6l65 .4 70 .5 35 .2-1.6-11.8c-.5.1-2.7.4-.5.1l-1.5.2-3.8.5-7.6.9a974.3 974.3 0 0 1-52 4.3c-22.6 1.6-45.3 3-68 4.4-13.6.8-27.3 1.5-40.9 2.4-3.1.2-6.2 2.6-6 6a6.1 6.1 0 0 0 6 6c28 .1 56.1-.3 84.2-.3 24.1 0 48.3.4 72.4 2.5q9.3.8 18.5 2h1.1c1.7.3-.9 0 .2 0l2.1.4 4.7.7 9 1.5 1.7-11.8c-19.2 1.8-38.5 3.5-57.7 4.6a189.9 189.9 0 0 1-23 .3c-3.8-.3-7.7-.9-11.6-1.2-8.4-.6-16.9-.1-25.3.2-23 1-46 1.5-69 2.4l-7.7.3c-3.1 0-6.1 2.6-6 6a6.1 6.1 0 0 0 6 6q21.7.3 43.5.4 22.5.2 45 0 12 0 23.9-.2v-12l-80.2 5.2-22.9 1.5c-3.1.2-6.2 2.6-6 6a6.1 6.1 0 0 0 6 6q16.9.1 33.8 1l26.1 1.4a596.9 596.9 0 0 0 70.1-.2c21.4-1 42.7-2.4 64-4l10-.7c3.2-.3 6.2-2.6 6-6 0-3-2.6-6.3-6-6-22.5 1.7-45 3.3-67.7 4.4-14.5.8-29 1.3-43.6 1.3q-14.8 0-29.6-.7l-26-1.4q-16-.9-32.2-1H953v12l80.3-5.2 22.9-1.5c3-.2 6.1-2.6 6-6a6 6 0 0 0-6-6q-21.8.3-43.5.3l-45-.2-23.9-.4v12c23-.9 45.9-1.5 68.8-2.3 10.5-.4 21-1.1 31.4-.6 4 .2 8 .8 11.9 1.1a154 154 0 0 0 20.3 0c17.4-.8 34.8-2.3 52.1-3.9l9.7-.9c3-.3 5.5-2 5.9-5.2.4-2.7-1.4-6-4.3-6.6-22.8-4.1-45.9-6-69-6.9-25.7-.9-51.5-.7-77.3-.5l-49.2.2v12c23.3-1.6 46.6-2.9 70-4.3 23.6-1.5 47.2-3 70.9-5 12.2-1 24.4-2.2 36.6-4a6 6 0 0 0 3.6-2.7 6.1 6.1 0 0 0 .7-3.8 6 6 0 0 0-5.9-5.2l-65-.4-70-.5-35-.3v12q24.6-1.3 49.2-2.3l46-2L1074 95c3.1-.2 6.1-2.7 6-6a6.1 6.1 0 0 0-6-6l-44.7.3h-41l-26.5.3v12c17-1.4 34-1.6 51.1-1.3 14.5.2 28.9.4 43.3-1a282 282 0 0 0 30.4-4.5 6 6 0 0 0 4.4-5.8c-.1-2.5-1.8-5.3-4.4-5.8a303 303 0 0 0-61-5.1c-16.5.3-32.8 2-49 3.4-8.6.7-17 1.3-25.6 1.5-3.1 0-6.2 2.7-6 6a6 6 0 0 0 6 6Z"/><path class="d" d="M979.8 87.6a5.2 5.2 0 0 1 2 2.3 8.5 8.5 0 0 1 .6 3.5 8.7 8.7 0 0 1-.7 3.6 5.1 5.1 0 0 1-1.9 2.3 5.5 5.5 0 0 1-3 .8 5.7 5.7 0 0 1-3-.8 5 5 0 0 1-2-2.3 8.9 8.9 0 0 1-.7-3.6 8.5 8.5 0 0 1 .7-3.5 5.3 5.3 0 0 1 2-2.3 5.4 5.4 0 0 1 3-.8 5.5 5.5 0 0 1 3 .8Zm-4.6 2.9a6.5 6.5 0 0 0-.5 3 6.7 6.7 0 0 0 .5 3 1.8 1.8 0 0 0 3.1 0 6.9 6.9 0 0 0 .5-3 6.5 6.5 0 0 0-.5-3 1.7 1.7 0 0 0-1.5-1 1.7 1.7 0 0 0-1.6 1ZM984.9 99.7V87.2h3l.2 1.4a5.5 5.5 0 0 1 1.6-1.4 4.2 4.2 0 0 1 2-.4 3 3 0 0 1 2.4 1 4 4 0 0 1 .8 2.7v9.2h-3.4v-8.1a5.6 5.6 0 0 0-.1-1.2 1.1 1.1 0 0 0-.4-.7 1 1 0 0 0-.6-.2 1.7 1.7 0 0 0-1 .4 4.8 4.8 0 0 0-1 1v8.8ZM1009.3 82.6l-1 2.4a6.6 6.6 0 0 0-2.5-.4 2.1 2.1 0 0 0-1.4.4 1.7 1.7 0 0 0-.5 1.3V88h3.8l-.4 2.6h-3.3v9.1h-3.4v-9.2H998V88h2.5v-1.8a4.4 4.4 0 0 1 .5-2.3 3.9 3.9 0 0 1 1.7-1.5 5.7 5.7 0 0 1 2.6-.6 9.5 9.5 0 0 1 4 .8ZM1014 94.5a3.4 3.4 0 0 0 1 2.2 2.6 2.6 0 0 0 1.9.7 5.2 5.2 0 0 0 3-1l1.4 2a6.5 6.5 0 0 1-2 1.3 7.2 7.2 0 0 1-2.6.4 6.1 6.1 0 0 1-3.3-.8 5.3 5.3 0 0 1-2-2.4 8.3 8.3 0 0 1-.7-3.4 8.4 8.4 0 0 1 .6-3.4 5.5 5.5 0 0 1 2-2.4 5.2 5.2 0 0 1 3-1 5.3 5.3 0 0 1 2.9.8 5 5 0 0 1 1.9 2.3 8.3 8.3 0 0 1 .6 3.4 13 13 0 0 1 0 1.3Zm.7-4.5a4.3 4.3 0 0 0-.7 2.3h4.3c0-2-.7-3-2-3a1.8 1.8 0 0 0-1.6.7ZM1034.6 99a5.8 5.8 0 0 1-1.7.8 7.1 7.1 0 0 1-2 .3 4.3 4.3 0 0 1-3.4-1.2 5 5 0 0 1-1.1-3.4v-5.8h-2.5v-2.5h2.5v-2.7l3.4-.5v3.2h3.7l-.3 2.5h-3.4v5.7a1.9 1.9 0 0 0 .4 1.4 1.7 1.7 0 0 0 1.3.4 3.9 3.9 0 0 0 2-.6ZM1044.7 96.9a6.7 6.7 0 0 0 1.3-.8l1.6 2.4a6.3 6.3 0 0 1-4.3 1.6 6 6 0 0 1-3.2-.8 5.4 5.4 0 0 1-2.1-2.3 8.6 8.6 0 0 1 0-7 5.8 5.8 0 0 1 2.1-2.3 6 6 0 0 1 3.2-.9 6.5 6.5 0 0 1 2.3.4 6 6 0 0 1 2 1.2l-1.5 2.2a4.3 4.3 0 0 0-2.6-1 2.2 2.2 0 0 0-2 1 5 5 0 0 0-.6 3 4.5 4.5 0 0 0 .6 2.8 2.3 2.3 0 0 0 2 .8 3 3 0 0 0 1.2-.3ZM1053.9 88.4a4.4 4.4 0 0 1 3.4-1.6 3 3 0 0 1 2.3 1 4.2 4.2 0 0 1 .9 2.7v9.2h-3.5v-8.2a6.1 6.1 0 0 0-.1-1.2 1.1 1.1 0 0 0-.3-.6 1 1 0 0 0-.7-.2 1.6 1.6 0 0 0-1 .4 5.3 5.3 0 0 0-1 1.1v8.7h-3.5V82.2l3.5-.4ZM981.7 119a5.3 5.3 0 0 1-2.3 1.7l4 6.9h-4l-3.3-6.2h-1v6.2h-3.6v-16.4h4.8a7.5 7.5 0 0 1 4.7 1.3 4.5 4.5 0 0 1 1.5 3.7 4.5 4.5 0 0 1-.8 2.8Zm-3.5-4.5a2.8 2.8 0 0 0-2-.5h-1.1v4.7h1.3a2.4 2.4 0 0 0 1.8-.6 2.6 2.6 0 0 0 .6-1.9 2.1 2.1 0 0 0-.6-1.7ZM987.9 122.4a3.4 3.4 0 0 0 .9 2.2 2.6 2.6 0 0 0 1.8.7 5.2 5.2 0 0 0 3-1l1.4 2a6.5 6.5 0 0 1-2 1.2 7.2 7.2 0 0 1-2.6.5 6.2 6.2 0 0 1-3.3-.8 5.3 5.3 0 0 1-2-2.4 8.3 8.3 0 0 1-.7-3.5 8.4 8.4 0 0 1 .7-3.4 5.5 5.5 0 0 1 2-2.4 5.2 5.2 0 0 1 3-.8 5.3 5.3 0 0 1 2.9.7 5 5 0 0 1 1.9 2.2 8.3 8.3 0 0 1 .6 3.5 13 13 0 0 1 0 1.3Zm.6-4.5a4.3 4.3 0 0 0-.7 2.3h4.3c0-2-.7-3-2.1-3a1.8 1.8 0 0 0-1.5.7ZM1004.6 109.7l3.4.4v17.5h-3l-.2-1.4a4.2 4.2 0 0 1-1.3 1.3 3.6 3.6 0 0 1-1.9.5 3.5 3.5 0 0 1-2.4-.8 5 5 0 0 1-1.4-2.4 12 12 0 0 1-.4-3.5 9.7 9.7 0 0 1 .5-3.4 5.4 5.4 0 0 1 1.6-2.4 3.8 3.8 0 0 1 2.5-.8 3.5 3.5 0 0 1 2.6 1.1Zm-3.2 8.6a6.5 6.5 0 0 0-.5 3 7.2 7.2 0 0 0 .4 3 1.4 1.4 0 0 0 1.4 1c.7 0 1.3-.5 1.9-1.5v-5.4a3.2 3.2 0 0 0-.8-.8 1.7 1.7 0 0 0-1-.2 1.6 1.6 0 0 0-1.4 1ZM1011.5 115h6.7v10h3v2.6h-9.7V125h3.3v-7.4h-3.2Zm5.6-6.2a1.9 1.9 0 0 1 .7.7 2.3 2.3 0 0 1 0 2.2 1.8 1.8 0 0 1-.7.7 2 2 0 0 1-1 .3 2 2 0 0 1-1-.3 2 2 0 0 1-.8-.7 2.3 2.3 0 0 1 0-2.2 2 2 0 0 1 .8-.7 2 2 0 0 1 1-.3 2 2 0 0 1 1 .3ZM1035 115l-.6 5.3h-2.2V118a3 3 0 0 0-1.7 1.1 7 7 0 0 0-1.2 2.4v3.6h2.3v2.5h-7.3v-2.5h1.6v-7.5h-1.6V115h4.2l.6 2.8a5.6 5.6 0 0 1 1.6-2.4 3.6 3.6 0 0 1 2.4-.8 4.8 4.8 0 0 1 1.9.4ZM1040.3 122.4a3.4 3.4 0 0 0 .9 2.2 2.6 2.6 0 0 0 1.9.7 5.2 5.2 0 0 0 3-1l1.4 2a6.5 6.5 0 0 1-2 1.2 7.2 7.2 0 0 1-2.6.5 6.1 6.1 0 0 1-3.3-.8 5.3 5.3 0 0 1-2-2.4 8.3 8.3 0 0 1-.7-3.5 8.4 8.4 0 0 1 .7-3.4 5.6 5.6 0 0 1 2-2.4 5.2 5.2 0 0 1 3-.8 5.3 5.3 0 0 1 2.8.7 5 5 0 0 1 2 2.2 8.3 8.3 0 0 1 .6 3.5 12.8 12.8 0 0 1 0 1.3Zm.6-4.5a4.3 4.3 0 0 0-.7 2.3h4.3c0-2-.7-3-2-3a1.8 1.8 0 0 0-1.6.7ZM1057.8 124.8a7 7 0 0 0 1.3-.8l1.6 2.3a6.3 6.3 0 0 1-4.3 1.7 6 6 0 0 1-3.2-.8 5.4 5.4 0 0 1-2.1-2.4 8.6 8.6 0 0 1 0-6.9 5.8 5.8 0 0 1 2.1-2.4 5.9 5.9 0 0 1 3.2-.9 6.7 6.7 0 0 1 2.3.4 6.2 6.2 0 0 1 2 1.2l-1.5 2.3a4.3 4.3 0 0 0-2.6-1 2.2 2.2 0 0 0-2 1 5 5 0 0 0-.6 3 4.5 4.5 0 0 0 .6 2.7 2.3 2.3 0 0 0 2 .9 3 3 0 0 0 1.3-.3ZM1074 126.8a6.3 6.3 0 0 1-1.7.9 7.1 7.1 0 0 1-2.1.3 4.3 4.3 0 0 1-3.4-1.2 5 5 0 0 1-1-3.5v-5.7h-2.5v-2.5h2.4v-2.7l3.5-.5v3.2h3.7l-.3 2.5h-3.4v5.7a2 2 0 0 0 .4 1.4 1.7 1.7 0 0 0 1.2.4 3.9 3.9 0 0 0 2-.6ZM1077 115h6.7v10h3v2.6h-9.7V125h3.3v-7.4h-3.2Zm5.7-6.2a1.9 1.9 0 0 1 .7.7 2.3 2.3 0 0 1 0 2.2 1.8 1.8 0 0 1-.7.7 2.1 2.1 0 0 1-2.1 0 1.9 1.9 0 0 1-.8-.7 2.3 2.3 0 0 1 0-2.2 2 2 0 0 1 .8-.7 2 2 0 0 1 1-.3 2 2 0 0 1 1 .3ZM1097.8 115.5a5.2 5.2 0 0 1 2 2.3 9.8 9.8 0 0 1 0 7 5 5 0 0 1-2 2.4 5.5 5.5 0 0 1-3 .8 5.7 5.7 0 0 1-3-.8 5 5 0 0 1-2-2.3 8.7 8.7 0 0 1-.6-3.6 8.5 8.5 0 0 1 .7-3.5 5.2 5.2 0 0 1 5-3.2 5.5 5.5 0 0 1 2.9.9Zm-4.6 2.8a6.5 6.5 0 0 0-.5 3 6.7 6.7 0 0 0 .5 3 1.8 1.8 0 0 0 3.1 0 6.7 6.7 0 0 0 .5-3 6.5 6.5 0 0 0-.5-3 1.8 1.8 0 0 0-3.1 0ZM1102.8 127.6V115h3l.3 1.4a5.3 5.3 0 0 1 1.6-1.4 4.1 4.1 0 0 1 2-.4 3 3 0 0 1 2.4 1 4.1 4.1 0 0 1 .8 2.7v9.2h-3.4v-8.1a5.7 5.7 0 0 0-.1-1.2 1.1 1.1 0 0 0-.4-.7 1 1 0 0 0-.6-.2 1.7 1.7 0 0 0-1 .4 4.8 4.8 0 0 0-1 1v8.8Z"/><path class="e" d="M1033.5 470.5v12"/><path d="m1033.7 507.5.7 87.5" stroke-dasharray="25 25" stroke="#f06292" fill="none" stroke-miterlimit="10" stroke-width="3"/><path class="e" d="M1034.5 607.5v12M1022.3 537.1c-.2 2.5 2 4.9 3.9 7.2a31.6 31.6 0 0 1 2 3M1029.7 550.3a20.6 20.6 0 0 1 1.4 11.8c1.6.6 3.9-.5 4.6-1.4a67.6 67.6 0 0 0 3.8-5.8M1045 542.5a48.8 48.8 0 0 0 2.2-11.8"/><path class="g" d="M814.5 385.5q-68.6-1.1-137.2-1c-45.2-.1-90.4 0-135.6.2l-77.2.3a1.5 1.5 0 0 0 0 3l137.2-.5q67.8-.2 135.7.1 38.5.3 77.1.9c2 0 2-3 0-3Z"/><path class="h" d="M464.5 266h81.2l89.8.1 84.4.2q32.2 0 64.5.3c9.8 0 19.7 0 29.6.3.7 0 0 0-.3-.1 1.8.9 3.3-1.7 1.6-2.6a5.7 5.7 0 0 0-2.4-.3l-4.6-.1-17.5-.2-61-.3-83-.2H464.6a1.5 1.5 0 0 0 0 3Z"/><path class="h" d="M713.6 259.5a150.5 150.5 0 0 1 35.6 5.5l-.9-2.2c-.4.7-1.8.7-2.5.8l-4 .8q-4 .7-7.8 1.7a136.7 136.7 0 0 0-15.2 4.8c-1.8.7-1 3.6.8 3a138 138 0 0 1 16.5-5.2q4.1-1 8.3-1.8c2.3-.4 5.1-.4 6.5-2.6a1.5 1.5 0 0 0-1-2.2 153.5 153.5 0 0 0-36.3-5.6c-2 0-2 3 0 3Z"/><rect x="162" y="182" width="276" height="276" rx="15.3" fill="#64b5f6"/><path d="M422.7 184a13.3 13.3 0 0 1 13.3 13.3v245.4a13.3 13.3 0 0 1-13.3 13.3H177.3a13.3 13.3 0 0 1-13.3-13.3V197.3a13.3 13.3 0 0 1 13.3-13.3h245.4m0-4H177.3a17.3 17.3 0 0 0-17.3 17.3v245.4a17.3 17.3 0 0 0 17.3 17.3h245.4a17.3 17.3 0 0 0 17.3-17.3V197.3a17.3 17.3 0 0 0-17.3-17.3Z" fill="#1e88e5"/><path class="g" d="m526.4 376.6-32 8.3c-1.5.5-1.2 2.4 0 3l30.6 12.6c1.8.7 2.6-2.2.8-3L495.2 385v3l32-8.4a1.5 1.5 0 0 0-.8-3Z"/><path class="e" d="M924.5 619.5v-12"/><path d="M924.9 583.2c.4-29 1.2-55.2 1.6-85" stroke-dasharray="24.3 24.3" stroke="#f06292" fill="none" stroke-miterlimit="10" stroke-width="3"/><path class="e" d="M926.6 486v-12"/><path d="M911.8 557c1.7-10.6 7.3-20.9 9-31.4a431.4 431.4 0 0 1 15 31" stroke-dasharray="24" stroke="#f06292" fill="none" stroke-miterlimit="10" stroke-width="3"/><path class="d" d="M252.3 327.5a14 14 0 0 1-3.9 2 15.6 15.6 0 0 1-4.8.7q-5 0-7.7-2.9c-1.7-2-2.5-4.6-2.5-8v-13.4h-5.6v-6h5.6v-6.4l7.9-1v7.4h8.5l-.7 6h-7.8v13.3a4.5 4.5 0 0 0 .9 3.1 3.8 3.8 0 0 0 2.9 1 8.7 8.7 0 0 0 4.6-1.3ZM265.3 317a8.1 8.1 0 0 0 2 5.2 6 6 0 0 0 4.4 1.6 11.7 11.7 0 0 0 6.8-2.4l3.2 4.8a14.7 14.7 0 0 1-4.7 3 15.9 15.9 0 0 1-6 1 13.8 13.8 0 0 1-7.5-2 12.2 12.2 0 0 1-4.7-5.5 21.8 21.8 0 0 1 0-16 13 13 0 0 1 4.4-5.7 11.7 11.7 0 0 1 7-2.1 12 12 0 0 1 6.6 1.8 11.6 11.6 0 0 1 4.4 5.2 19.6 19.6 0 0 1 1.5 8 28.3 28.3 0 0 1-.2 3.2Zm1.4-10.5a10.2 10.2 0 0 0-1.5 5.3h9.8q0-7-4.8-7a4 4 0 0 0-3.4 1.7ZM302.4 323.2a2.3 2.3 0 0 0 1.2-2 2.5 2.5 0 0 0-.5-1.6 4.6 4.6 0 0 0-1.8-1.2 41.5 41.5 0 0 0-4-1.4 14.4 14.4 0 0 1-6.2-3.3 7.7 7.7 0 0 1-2.1-5.7 8.4 8.4 0 0 1 1.3-4.7 8.9 8.9 0 0 1 4-3.2 15.4 15.4 0 0 1 6.2-1.2 16.6 16.6 0 0 1 10.8 3.6l-3.2 5.1a16 16 0 0 0-3.6-1.8 11.1 11.1 0 0 0-3.7-.7 5.7 5.7 0 0 0-2.9.6 1.9 1.9 0 0 0-1 1.7 1.8 1.8 0 0 0 .6 1.3 5.5 5.5 0 0 0 1.7 1.1l4 1.4a22.3 22.3 0 0 1 4.7 2 7.7 7.7 0 0 1 2.8 2.8 9 9 0 0 1 1 4.5 8.5 8.5 0 0 1-1.7 5.3 10.3 10.3 0 0 1-4.5 3.3 17.3 17.3 0 0 1-6.3 1.1 18 18 0 0 1-6.8-1.1 15.4 15.4 0 0 1-5-3.3l4-5a13.3 13.3 0 0 0 3.6 2.3 10.6 10.6 0 0 0 4.2.8 6.3 6.3 0 0 0 3.2-.7ZM342.4 327.5a13.8 13.8 0 0 1-3.8 2 15.5 15.5 0 0 1-4.9.7q-5 0-7.6-2.9c-1.8-2-2.6-4.6-2.6-8v-13.4h-5.6v-6h5.6v-6.4l7.9-1v7.4h8.6l-.8 6h-7.8v13.3a4.5 4.5 0 0 0 1 3.1 3.8 3.8 0 0 0 2.8 1 8.8 8.8 0 0 0 4.7-1.3ZM362.4 323.2a2.3 2.3 0 0 0 1.2-2 2.6 2.6 0 0 0-.4-1.6 4.6 4.6 0 0 0-1.8-1.2 40.9 40.9 0 0 0-4-1.4 14.4 14.4 0 0 1-6.2-3.3 7.7 7.7 0 0 1-2.1-5.7 8.3 8.3 0 0 1 1.3-4.7 8.8 8.8 0 0 1 4-3.3 15.3 15.3 0 0 1 6.2-1.1 16.6 16.6 0 0 1 10.8 3.5l-3.2 5.2a16 16 0 0 0-3.6-1.8 11.2 11.2 0 0 0-3.8-.7 5.6 5.6 0 0 0-2.8.6 1.9 1.9 0 0 0-1 1.7 1.8 1.8 0 0 0 .5 1.3 5.3 5.3 0 0 0 1.8 1l4 1.5a22 22 0 0 1 4.7 2 7.8 7.8 0 0 1 2.8 2.7 9 9 0 0 1 1 4.6 8.4 8.4 0 0 1-1.7 5.3 10.2 10.2 0 0 1-4.5 3.3 17.3 17.3 0 0 1-6.4 1 18 18 0 0 1-6.7-1 15.4 15.4 0 0 1-5-3.3l4-5a13.3 13.3 0 0 0 3.5 2.3 10.5 10.5 0 0 0 4.2.8 6.3 6.3 0 0 0 3.2-.7Z"/><rect class="c" x="842" y="182" width="276" height="276" rx="15.3"/><path d="M1102.7 184a13.3 13.3 0 0 1 13.3 13.3v245.4a13.3 13.3 0 0 1-13.3 13.3H857.3a13.3 13.3 0 0 1-13.3-13.3V197.3a13.3 13.3 0 0 1 13.3-13.3h245.4m0-4H857.3a17.3 17.3 0 0 0-17.3 17.3v245.4a17.3 17.3 0 0 0 17.3 17.3h245.4a17.3 17.3 0 0 0 17.3-17.3V197.3a17.3 17.3 0 0 0-17.3-17.3Z" fill="#d81b60"/><path class="d" d="M896.8 303.8a12 12 0 0 1 4.5 5.4 20.6 20.6 0 0 1 1.5 8.3 21 21 0 0 1-1.5 8.4 12 12 0 0 1-4.5 5.4 13.8 13.8 0 0 1-13.9 0 11.6 11.6 0 0 1-4.4-5.3 21.1 21.1 0 0 1-1.5-8.4 20.3 20.3 0 0 1 1.5-8.2 12.7 12.7 0 0 1 18.3-5.5Zm-10.5 6.7c-.8 1.5-1.2 3.8-1.2 7s.4 5.6 1.2 7a4 4 0 0 0 7.2 0q1.1-2.2 1.1-7t-1.1-7a4 4 0 0 0-7.2 0ZM908.4 332.3v-29.5h7l.5 3.4a12.6 12.6 0 0 1 3.7-3.3 9.3 9.3 0 0 1 4.5-1 6.6 6.6 0 0 1 5.4 2.3 9.8 9.8 0 0 1 2 6.5v21.6h-8v-19.1a13.5 13.5 0 0 0-.2-3 2.6 2.6 0 0 0-.8-1.4 2.4 2.4 0 0 0-1.5-.5 3.9 3.9 0 0 0-2.4.9 11.2 11.2 0 0 0-2.3 2.5v20.6ZM964.5 292.1l-2.2 5.7a14.6 14.6 0 0 0-5.7-1.1 5 5 0 0 0-3.4 1 4.1 4.1 0 0 0-1 3v4h8.7l-.9 6h-7.8v21.6h-7.8v-21.5h-5.6v-6.1h5.6v-4.3a10.8 10.8 0 0 1 1.2-5.2 8.8 8.8 0 0 1 3.8-3.6 12.7 12.7 0 0 1 6-1.4 21 21 0 0 1 9 1.9ZM975.3 320a8.1 8.1 0 0 0 2.1 5.2 6 6 0 0 0 4.3 1.6 11.7 11.7 0 0 0 6.8-2.4l3.2 4.8a14.7 14.7 0 0 1-4.7 3 15.9 15.9 0 0 1-5.9 1 13.8 13.8 0 0 1-7.6-2 12.2 12.2 0 0 1-4.6-5.5 21.7 21.7 0 0 1 0-16 13 13 0 0 1 4.4-5.7 11.7 11.7 0 0 1 7-2.1 12 12 0 0 1 6.6 1.8 11.7 11.7 0 0 1 4.3 5.2 19.6 19.6 0 0 1 1.5 8 28.3 28.3 0 0 1-.1 3.2Zm1.5-10.5a10.2 10.2 0 0 0-1.6 5.3h9.8q0-7-4.8-7a4 4 0 0 0-3.4 1.7ZM1022.5 330.5a14 14 0 0 1-4 2 15.5 15.5 0 0 1-4.8.7q-5 0-7.6-2.9c-1.8-2-2.6-4.6-2.6-8v-13.4h-5.6v-6h5.6v-6.4l7.9-1v7.4h8.6l-.8 6h-7.8v13.3a4.5 4.5 0 0 0 1 3.1 3.8 3.8 0 0 0 2.8 1 8.8 8.8 0 0 0 4.7-1.3ZM1045.6 325.6a15.6 15.6 0 0 0 3-1.8l3.5 5.5a14.3 14.3 0 0 1-9.9 3.9 13.5 13.5 0 0 1-7.3-2 12.6 12.6 0 0 1-4.8-5.4 18.7 18.7 0 0 1-1.6-8 18.9 18.9 0 0 1 1.7-8.3 13 13 0 0 1 12.2-7.6 14.9 14.9 0 0 1 5.3.9 14 14 0 0 1 4.4 2.7l-3.4 5.3a9.7 9.7 0 0 0-6-2.2 5 5 0 0 0-4.4 2.2c-1 1.4-1.6 3.8-1.6 7s.6 5.2 1.6 6.5a5.3 5.3 0 0 0 4.3 2 7 7 0 0 0 3-.7ZM1066.5 305.8a10 10 0 0 1 7.8-4 6.6 6.6 0 0 1 5.4 2.4 9.9 9.9 0 0 1 2 6.5v21.6h-8V313a13 13 0 0 0-.2-2.8 2.6 2.6 0 0 0-.8-1.5 2.3 2.3 0 0 0-1.5-.5 3.7 3.7 0 0 0-2.4 1 12.5 12.5 0 0 0-2.3 2.6v20.4h-7.9v-41.1l8-.9Z"/><path class="n" d="M334.7 110.7a53.9 53.9 0 0 1 7.9 14 87.3 87.3 0 0 1 3.8 12.2 281 281 0 0 0 12.7-36"/><path class="n" d="M347.6 20c-.8 50.5-.9 97.4-.1 148M237.5 168.5l-1-149.6M228.5 125.1c-.7-2.7.5-5.4 1.7-7.9l6.4-13.5c.2-.4.4-.9.9-.9s2.8-13.6 3-13.3c2 2.6 1.9 19.1 4 21.8 3.6 4.6 7.4 9.5 7.6 15.4"/><path class="o" d="M1226 196.3a4.9 4.9 0 0 1-.3 3.3l-9.2 28c-2.4-11-6.8-21.6-11.2-32"/><path class="o" d="M925.5 164.5c-1.8-35.1-.6-63.2-2.4-98.3-.1-2.6-.2-5.5 1.3-7.6 2.2-3.1 6.6-3.4 10.4-3.4l274.5-.1c1.8 0 3.8 0 5 1.3s1.4 3.4 1.4 5.2l-1.4 256.2c0 1.3 0 2.7-1.1 3.6a4.4 4.4 0 0 1-3.2.5c-25.6-2.1-50.8 1.7-76.5-.4"/><path class="g" d="M545.7 379.2q41.7 1.3 83.5 1 41.5-.4 83-2.4 23.3-1.2 46.6-2.8c4.6-.3 8.3-3.2 8.9-7.8a8.6 8.6 0 0 0-1-5.7c-1.3-1.9-3.2-3.8-5.5-4.2a721 721 0 0 0-81.5-9.1 701.1 701.1 0 0 0-80 .2q-22.5 1.3-44.9 4.1c-2.4.3-4.5.8-6.3 2.7a9 9 0 0 0 0 12.7c1.6 1.5 4 3 6.3 2.6a700.5 700.5 0 0 1 140.7-3.3q19.7 1.5 39.2 4.1l-2.4-.3q12.1 1.6 24.2 3.7l2.3-17.7q-41.6 3-83.4 4.2-41.5 1.3-83 1-23.3-.3-46.7-1c-4.7-.1-9.2 4.2-9 9a9.2 9.2 0 0 0 9 9Z"/><path class="d" d="m565.2 355 1 17.1h-3.3l-.2-7.3v-3.5l.2-2.5v-.2l-1.8 10.7h-2.8l-2-10.7a65.6 65.6 0 0 1 .3 5v1.4l-.1 7.2h-3.2l.9-17h3.8l1.8 11 1.6-11ZM576.5 359.5a5.3 5.3 0 0 1 2 2.4 9 9 0 0 1 .7 3.7 9.1 9.1 0 0 1-.7 3.7 5.2 5.2 0 0 1-2 2.4 5.7 5.7 0 0 1-3.2.9 5.8 5.8 0 0 1-3.1-.9 5.2 5.2 0 0 1-2-2.4 9.2 9.2 0 0 1-.7-3.7 8.8 8.8 0 0 1 .7-3.6 5.4 5.4 0 0 1 2-2.5 5.6 5.6 0 0 1 3.1-.9 5.7 5.7 0 0 1 3.2 1Zm-4.8 3a6.8 6.8 0 0 0-.5 3.1 7 7 0 0 0 .5 3.1 1.9 1.9 0 0 0 3.3 0 7 7 0 0 0 .5-3.1 6.7 6.7 0 0 0-.5-3 1.8 1.8 0 0 0-3.3 0ZM589.5 369.2a7.1 7.1 0 0 0 1.3-.8l1.6 2.5a6.7 6.7 0 0 1-2 1.2 6.8 6.8 0 0 1-5.8-.4 5.6 5.6 0 0 1-2.2-2.4 8.2 8.2 0 0 1-.7-3.6 8.3 8.3 0 0 1 .8-3.6 6 6 0 0 1 2.2-2.5 6 6 0 0 1 3.3-1 6.9 6.9 0 0 1 2.4.5 6.3 6.3 0 0 1 2 1.2l-1.5 2.3a4.4 4.4 0 0 0-2.7-1 2.3 2.3 0 0 0-2 1 5.3 5.3 0 0 0-.8 3.1 4.7 4.7 0 0 0 .8 3 2.4 2.4 0 0 0 2 .8 3.3 3.3 0 0 0 1.3-.3ZM595.4 353.9l3.5-.4V372h-3.5Zm7.6 5.2h3.8l-4 5.8 4.3 7.3H603l-4-7.2ZM612 366.8a3.5 3.5 0 0 0 1 2.2 2.7 2.7 0 0 0 2 .7 5.4 5.4 0 0 0 3-1l1.5 2a6.5 6.5 0 0 1-2 1.4 7.3 7.3 0 0 1-2.8.5 6.4 6.4 0 0 1-3.4-1 5.5 5.5 0 0 1-2.1-2.4 8.6 8.6 0 0 1-.7-3.6 8.8 8.8 0 0 1 .6-3.5 5.8 5.8 0 0 1 2-2.5 5.4 5.4 0 0 1 3.2-1 5.5 5.5 0 0 1 3 .8 5.3 5.3 0 0 1 2 2.4 8.6 8.6 0 0 1 .7 3.6 11.3 11.3 0 0 1 0 1.3Zm.7-4.8a4.4 4.4 0 0 0-.7 2.4h4.5c0-2-.8-3.1-2.2-3.1a1.9 1.9 0 0 0-1.6.7ZM629.5 353.5l3.5.4v18.3H630l-.2-1.5a4.4 4.4 0 0 1-1.4 1.4 3.7 3.7 0 0 1-2 .5 3.6 3.6 0 0 1-2.4-.9 5 5 0 0 1-1.5-2.4 12.4 12.4 0 0 1-.5-3.7 10.2 10.2 0 0 1 .6-3.6 5.6 5.6 0 0 1 1.7-2.5 4 4 0 0 1 2.5-.8 3.5 3.5 0 0 1 2.7 1.2Zm-3.3 9a6.7 6.7 0 0 0-.6 3.1 7.5 7.5 0 0 0 .5 3.2 1.5 1.5 0 0 0 1.4 1c.7 0 1.4-.6 2-1.6v-5.6a3.2 3.2 0 0 0-.8-.8 1.7 1.7 0 0 0-1-.3 1.7 1.7 0 0 0-1.5 1ZM660.1 363.2a5.4 5.4 0 0 1-2.3 1.8l4.2 7.1h-4.2l-3.5-6.5h-1v6.5h-3.7v-17h5a7.8 7.8 0 0 1 4.8 1.3 5.4 5.4 0 0 1 .8 6.8Zm-3.6-4.7a3 3 0 0 0-2-.6h-1.2v5h1.3a2.5 2.5 0 0 0 1.9-.7 2.7 2.7 0 0 0 .6-2 2.2 2.2 0 0 0-.6-1.7ZM666.6 366.8a3.5 3.5 0 0 0 .9 2.2 2.7 2.7 0 0 0 2 .7 5.4 5.4 0 0 0 3-1l1.5 2a6.5 6.5 0 0 1-2 1.4 7.4 7.4 0 0 1-2.8.5 6.4 6.4 0 0 1-3.4-.9 5.5 5.5 0 0 1-2.1-2.4 8.6 8.6 0 0 1-.7-3.7 8.7 8.7 0 0 1 .7-3.5 5.8 5.8 0 0 1 2-2.5 5.4 5.4 0 0 1 3.1-1 5.6 5.6 0 0 1 3 .9 5.2 5.2 0 0 1 2 2.3 8.4 8.4 0 0 1 .7 3.6 13.7 13.7 0 0 1 0 1.4Zm.6-4.8a4.5 4.5 0 0 0-.7 2.4h4.5q0-3.1-2.2-3.1a1.9 1.9 0 0 0-1.6.7ZM683.4 369.5a1 1 0 0 0 .5-1 1.2 1.2 0 0 0-.2-.6 2.1 2.1 0 0 0-.8-.6 18 18 0 0 0-1.8-.6 6.6 6.6 0 0 1-2.8-1.4 3.4 3.4 0 0 1-1-2.6 3.6 3.6 0 0 1 .6-2.1 4 4 0 0 1 1.8-1.4 7 7 0 0 1 2.8-.5 7.6 7.6 0 0 1 4.9 1.5l-1.4 2.3a6.8 6.8 0 0 0-1.6-.8 5.1 5.1 0 0 0-1.7-.3 2.6 2.6 0 0 0-1.4.3.8.8 0 0 0-.4.7.8.8 0 0 0 .3.6 2.8 2.8 0 0 0 .8.5l1.8.6a10.2 10.2 0 0 1 2.1.9 3.5 3.5 0 0 1 1.3 1.2 3.9 3.9 0 0 1 .4 2 3.7 3.7 0 0 1-.7 2.4 4.7 4.7 0 0 1-2 1.5 8 8 0 0 1-3 .5 8.3 8.3 0 0 1-3-.6 7 7 0 0 1-2.3-1.4l1.8-2.2a5.9 5.9 0 0 0 1.7 1 4.9 4.9 0 0 0 1.9.4 3 3 0 0 0 1.4-.3ZM700.7 360.5a10.2 10.2 0 0 1 1 5 10.9 10.9 0 0 1-.5 3.7 5.6 5.6 0 0 1-1.6 2.5 3.7 3.7 0 0 1-2.5.9 3.5 3.5 0 0 1-2.8-1.4v6l-3.6.4v-18.5h3.2l.1 1.4a4.7 4.7 0 0 1 1.6-1.4 3.8 3.8 0 0 1 1.8-.5 3.6 3.6 0 0 1 3.3 1.9Zm-5.5 1.4a3.8 3.8 0 0 0-1 1.1v5.5a3 3 0 0 0 .9 1 1.8 1.8 0 0 0 1 .2 1.6 1.6 0 0 0 1.5-1 7 7 0 0 0 .5-3 11.5 11.5 0 0 0-.2-2.6 2.4 2.4 0 0 0-.6-1.2 1.4 1.4 0 0 0-1-.4 1.7 1.7 0 0 0-1.1.4ZM712.7 359.5a5.3 5.3 0 0 1 2 2.4 9 9 0 0 1 .7 3.7 9.3 9.3 0 0 1-.7 3.7 5.3 5.3 0 0 1-2 2.4 5.7 5.7 0 0 1-3.1.9 5.8 5.8 0 0 1-3.2-.9 5.2 5.2 0 0 1-2-2.4 9.2 9.2 0 0 1-.7-3.7 8.8 8.8 0 0 1 .7-3.6 5.5 5.5 0 0 1 2-2.5 5.6 5.6 0 0 1 3.2-.9 5.7 5.7 0 0 1 3.1 1Zm-4.8 3a7 7 0 0 0-.5 3.1 7 7 0 0 0 .5 3.1 1.8 1.8 0 0 0 1.7 1 1.7 1.7 0 0 0 1.6-1 7 7 0 0 0 .5-3.1 6.8 6.8 0 0 0-.5-3 1.8 1.8 0 0 0-1.6-1 1.7 1.7 0 0 0-1.7.9ZM718 372.1v-13h3.1l.3 1.5a5.9 5.9 0 0 1 1.7-1.5 4.4 4.4 0 0 1 2-.5 3 3 0 0 1 2.4 1 4.3 4.3 0 0 1 .9 3v9.5h-3.6v-8.5a6.2 6.2 0 0 0-.1-1.2 1.3 1.3 0 0 0-.4-.7 1.1 1.1 0 0 0-.7-.2 1.8 1.8 0 0 0-1 .4 5 5 0 0 0-1 1v9.2ZM737.9 369.5a1 1 0 0 0 .5-1 1.1 1.1 0 0 0-.2-.6 2.1 2.1 0 0 0-.8-.6 18 18 0 0 0-1.9-.6 6.6 6.6 0 0 1-2.7-1.4 3.4 3.4 0 0 1-1-2.6 3.6 3.6 0 0 1 .6-2.1 4 4 0 0 1 1.8-1.4 7 7 0 0 1 2.8-.5 7.6 7.6 0 0 1 4.9 1.5l-1.4 2.3a6.8 6.8 0 0 0-1.7-.8 5.1 5.1 0 0 0-1.7-.3 2.6 2.6 0 0 0-1.3.3.8.8 0 0 0-.4.7.8.8 0 0 0 .2.6 2.8 2.8 0 0 0 .8.5l1.8.6a10.2 10.2 0 0 1 2.2.9 3.5 3.5 0 0 1 1.2 1.2 4 4 0 0 1 .5 2 3.7 3.7 0 0 1-.8 2.4 4.7 4.7 0 0 1-2 1.5 8 8 0 0 1-3 .5 8.3 8.3 0 0 1-3-.6 7 7 0 0 1-2.2-1.4l1.8-2.2a6.1 6.1 0 0 0 1.6 1 4.9 4.9 0 0 0 2 .4 2.9 2.9 0 0 0 1.4-.3ZM748.3 366.8a3.6 3.6 0 0 0 1 2.2 2.7 2.7 0 0 0 2 .7 5.4 5.4 0 0 0 3-1l1.5 2a6.7 6.7 0 0 1-2.2 1.4 7.3 7.3 0 0 1-2.7.5 6.4 6.4 0 0 1-3.4-.9 5.5 5.5 0 0 1-2.1-2.4 8.7 8.7 0 0 1-.7-3.7 8.8 8.8 0 0 1 .7-3.5 5.8 5.8 0 0 1 2-2.5 5.5 5.5 0 0 1 3.1-1 5.5 5.5 0 0 1 3 .9 5.2 5.2 0 0 1 2 2.3 8.6 8.6 0 0 1 .7 3.6 11.3 11.3 0 0 1 0 1.4Zm.7-4.8a4.4 4.4 0 0 0-.7 2.4h4.4c0-2.1-.7-3.2-2.1-3.2a1.9 1.9 0 0 0-1.6.8Z"/><path class="h" d="M79 90c17.2-.5 34.5-1.3 51.7-2a1622 1622 0 0 1 81.2-1l-8.5-20.6a17.9 17.9 0 0 1-2.7 2.7l2.4-2a24 24 0 0 1-5 3l2.9-1.3c-6 2.5-12.6 3.4-19 4.2l3.3-.4c-16.5 2.2-33.2 2.1-49.7 2.5-16.5.4-33 1.4-49 5a123.4 123.4 0 0 0-27 9.5l-2.4 1.9a9 9 0 0 0-2.4 3.9 11.6 11.6 0 0 0-.6 7.8c1.6 5 6 8.9 11.5 8.8l56.7-1 56.6-.8 32-.6-3.2-23.5q-13.9 2.3-27.8 4.1l3.2-.4c-17.1 2.3-34.2 3.9-51.4 5.4a289.3 289.3 0 0 0-49.9 7.5 131.5 131.5 0 0 0-27.2 10.5l-2.4 1.9a9 9 0 0 0-2.5 3.8 11.5 11.5 0 0 0-.6 7.9 14.3 14.3 0 0 0 3.1 5.2c2.2 2.4 5.4 3.3 8.5 3.5 22.6 1.9 45 .4 67.4-3.3l18-2.9-3.2.5a212.3 212.3 0 0 1 27.2-1.5c9 0 18.2 0 27.2-1a13.3 13.3 0 0 0 8.5-3.6 12 12 0 0 0 0-17c-2.2-2-5.4-3.8-8.5-3.5-10.7 1.2-21.6 1-32.4 1a231 231 0 0 0-35 3.4l-18 3 3.2-.5a251.8 251.8 0 0 1-54.3 1.4l6 22.3a109 109 0 0 1 7.9-3.7l-2.9 1.2c13-5.5 27-8.4 41-10.3l-3.2.4c12.4-1.6 25-2.5 37.4-3.6 14.6-1.4 29.2-3.1 43.8-5.1l23.3-3.6c2.7-.5 6-3.2 7.2-5.5a12.4 12.4 0 0 0 1.3-7.6A12 12 0 0 0 211 85.6l-56.6 1-56.7.9-32 .5 6 22.4 5-2.3-3 1.3a129.4 129.4 0 0 1 33-8.5l-3.3.4c14.8-2 29.7-2.1 44.6-2.4 16.4-.4 32.9-1 49-4.1 8.5-1.6 17.6-4.6 23.3-11.4a14.4 14.4 0 0 0 3.1-5.3A12.2 12.2 0 0 0 212 63c-17.3-.4-34.6-.3-51.8.2s-34.5 1.1-51.8 1.8L79 66.2a12.5 12.5 0 0 0-8.5 3.5A12 12 0 0 0 79 90Z"/><path class="d" d="M90 76.2a53.1 53.1 0 0 1 .6 7.2V90h-3.2v-17H92l4 13.6a44.5 44.5 0 0 1-.6-7.2v-6.5h3.2v17h-4.5ZM109.8 77.2a5.5 5.5 0 0 1 2 2.5 9 9 0 0 1 .7 3.6 9.2 9.2 0 0 1-.7 3.8 5.3 5.3 0 0 1-2 2.4 5.7 5.7 0 0 1-3.2.8 5.8 5.8 0 0 1-3.1-.8 5.3 5.3 0 0 1-2-2.4 9.3 9.3 0 0 1-.7-3.8 9 9 0 0 1 .7-3.6 5.3 5.3 0 0 1 5.1-3.3 5.7 5.7 0 0 1 3.2.8Zm-4.8 3a6.9 6.9 0 0 0-.5 3.1 7 7 0 0 0 .5 3.2 1.9 1.9 0 0 0 3.2 0 7 7 0 0 0 .6-3.2 6.8 6.8 0 0 0-.6-3 1.8 1.8 0 0 0-3.2 0ZM115 89.9v-13h3.1l.3 1.4A5.6 5.6 0 0 1 120 77a4.2 4.2 0 0 1 2-.5 3 3 0 0 1 2.4 1 4.3 4.3 0 0 1 1 2.9v9.6h-3.7v-8.5a6 6 0 0 0 0-1.3 1.1 1.1 0 0 0-.4-.6 1 1 0 0 0-.7-.3 1.8 1.8 0 0 0-1 .4 4.7 4.7 0 0 0-1.1 1.1V90ZM138.8 84.7h-9.9v-3h9.9ZM154 72l-1 2.5a6.7 6.7 0 0 0-2.5-.5 2.2 2.2 0 0 0-1.6.5 1.8 1.8 0 0 0-.4 1.4v1.7h4l-.5 2.7h-3.5v9.6h-3.6v-9.6h-2.5v-2.7h2.5v-1.9a4.7 4.7 0 0 1 .6-2.3 4 4 0 0 1 1.7-1.6 5.8 5.8 0 0 1 2.7-.6 9.7 9.7 0 0 1 4.2.8ZM159 84.5a3.6 3.6 0 0 0 1 2.2 2.7 2.7 0 0 0 2 .8 5.4 5.4 0 0 0 3-1.1l1.4 2.1a6.4 6.4 0 0 1-2 1.3 7.3 7.3 0 0 1-2.8.5 6.4 6.4 0 0 1-3.4-.9 5.4 5.4 0 0 1-2.1-2.4 8.7 8.7 0 0 1-.8-3.6 8.8 8.8 0 0 1 .7-3.6 5.9 5.9 0 0 1 2-2.5 5.4 5.4 0 0 1 3.2-.9 5.5 5.5 0 0 1 3 .8 5.2 5.2 0 0 1 2 2.3 8.6 8.6 0 0 1 .7 3.6 13.5 13.5 0 0 1 0 1.4Zm.7-4.7a4.5 4.5 0 0 0-.7 2.3h4.4q0-3.1-2.2-3.1a1.9 1.9 0 0 0-1.6.8ZM180.3 89.1a6.6 6.6 0 0 1-1.7.9 7.3 7.3 0 0 1-2.2.3 4.5 4.5 0 0 1-3.5-1.3 5.2 5.2 0 0 1-1.2-3.6v-6h-2.5v-2.6h2.6V74l3.5-.5v3.3h4l-.4 2.7h-3.6v6a2 2 0 0 0 .4 1.3 1.8 1.8 0 0 0 1.3.5 4 4 0 0 0 2.2-.6ZM190.8 87a7 7 0 0 0 1.4-.9l1.6 2.5a6.4 6.4 0 0 1-2 1.2 6.6 6.6 0 0 1-2.5.5 6.2 6.2 0 0 1-3.3-.9 5.7 5.7 0 0 1-2.2-2.4 8.1 8.1 0 0 1-.7-3.6 8.3 8.3 0 0 1 .8-3.6 6 6 0 0 1 2.2-2.5 6.1 6.1 0 0 1 3.3-1 6.8 6.8 0 0 1 2.4.5 6.2 6.2 0 0 1 2 1.2l-1.5 2.3a4.4 4.4 0 0 0-2.8-1 2.3 2.3 0 0 0-2 1 5.3 5.3 0 0 0-.7 3.1 4.7 4.7 0 0 0 .8 3 2.4 2.4 0 0 0 2 .8 3.3 3.3 0 0 0 1.3-.3ZM200.3 78.1a4.6 4.6 0 0 1 3.6-1.7 3 3 0 0 1 2.4 1 4.4 4.4 0 0 1 .9 2.9v9.6h-3.6v-8.5a6 6 0 0 0-.1-1.3 1.1 1.1 0 0 0-.4-.7 1 1 0 0 0-.7-.2 1.7 1.7 0 0 0-1 .4 5.5 5.5 0 0 0-1 1.2v9h-3.7V71.6l3.6-.4ZM98 109.7a5.5 5.5 0 0 1-2.2 1.8l4 7.2h-4.1l-3.4-6.5h-1v6.5h-3.8v-17h5a7.8 7.8 0 0 1 4.8 1.2 5.4 5.4 0 0 1 .8 6.8Zm-3.6-4.7a3 3 0 0 0-2-.6h-1.2v5h1.4a2.5 2.5 0 0 0 1.9-.7 2.7 2.7 0 0 0 .6-2 2.2 2.2 0 0 0-.7-1.7ZM104.5 113.3a3.6 3.6 0 0 0 1 2.2 2.7 2.7 0 0 0 2 .8 5.4 5.4 0 0 0 3-1.1l1.5 2.1a6.6 6.6 0 0 1-2.1 1.3 7.4 7.4 0 0 1-2.7.5 6.4 6.4 0 0 1-3.5-.9 5.5 5.5 0 0 1-2.1-2.4 9.4 9.4 0 0 1 0-7.2 5.7 5.7 0 0 1 2-2.5 5.4 5.4 0 0 1 3.2-1 5.5 5.5 0 0 1 3 .9 5.2 5.2 0 0 1 2 2.3 8.4 8.4 0 0 1 .7 3.6 13.5 13.5 0 0 1-.1 1.4Zm.7-4.7a4.5 4.5 0 0 0-.7 2.3h4.4q0-3.1-2.2-3.1a1.9 1.9 0 0 0-1.5.8ZM120.9 105.6a3.8 3.8 0 0 1 1.3 1l.1-1h3.1v18.6l-3.5-.4v-6.2a3.7 3.7 0 0 1-3.1 1.5 3.6 3.6 0 0 1-3.4-1.8 10.2 10.2 0 0 1-1-5.2 10.6 10.6 0 0 1 .5-3.6 5.5 5.5 0 0 1 1.7-2.4 4 4 0 0 1 2.6-.9 3.6 3.6 0 0 1 1.7.4Zm-2.3 3.4a7 7 0 0 0-.5 3.1 10.6 10.6 0 0 0 .2 2.5 2.4 2.4 0 0 0 .6 1.2 1.4 1.4 0 0 0 1 .4 2.3 2.3 0 0 0 2-1.5v-5.6a3 3 0 0 0-.8-.8 1.6 1.6 0 0 0-1-.3 1.7 1.7 0 0 0-1.5 1ZM132.2 114.5a2 2 0 0 0 .3 1.3 1.1 1.1 0 0 0 1 .4 2 2 0 0 0 1-.4 3.1 3.1 0 0 0 1-1v-9.2h3.6v13.1h-3.2l-.1-1.5a4.1 4.1 0 0 1-1.6 1.4 4.6 4.6 0 0 1-2.1.5 3.1 3.1 0 0 1-2.6-1.1 4.6 4.6 0 0 1-.9-3v-9.4h3.6ZM145.4 113.3a3.6 3.6 0 0 0 .9 2.2 2.7 2.7 0 0 0 2 .8 5.4 5.4 0 0 0 3-1.1l1.5 2.1a6.5 6.5 0 0 1-2 1.3 7.3 7.3 0 0 1-2.8.5 6.4 6.4 0 0 1-3.4-.9 5.4 5.4 0 0 1-2.1-2.4 8.7 8.7 0 0 1-.8-3.6 8.8 8.8 0 0 1 .7-3.6 5.8 5.8 0 0 1 2-2.5 5.4 5.4 0 0 1 3.2-1 5.5 5.5 0 0 1 3 .9 5.2 5.2 0 0 1 2 2.3 8.6 8.6 0 0 1 .7 3.6 13.8 13.8 0 0 1 0 1.4Zm.6-4.7a4.5 4.5 0 0 0-.7 2.3h4.5c0-2-.8-3.1-2.2-3.1a1.9 1.9 0 0 0-1.6.8ZM162.2 116a1 1 0 0 0 .5-1 1.2 1.2 0 0 0-.2-.6 2 2 0 0 0-.8-.6 18.3 18.3 0 0 0-1.9-.6 6.6 6.6 0 0 1-2.7-1.4 3.4 3.4 0 0 1-1-2.6 3.7 3.7 0 0 1 .6-2 4 4 0 0 1 1.8-1.5 7.1 7.1 0 0 1 2.8-.5 7.6 7.6 0 0 1 5 1.6l-1.5 2.3a7.6 7.6 0 0 0-1.6-.9 5.1 5.1 0 0 0-1.8-.3 2.6 2.6 0 0 0-1.3.3.8.8 0 0 0-.4.8.8.8 0 0 0 .2.5 2.2 2.2 0 0 0 .8.5 18.5 18.5 0 0 0 1.9.6 10 10 0 0 1 2.1 1 3.4 3.4 0 0 1 1.3 1.2 3.9 3.9 0 0 1 .4 2 3.7 3.7 0 0 1-.7 2.3 4.7 4.7 0 0 1-2 1.5 8 8 0 0 1-3 .5 8.4 8.4 0 0 1-3-.5 7.1 7.1 0 0 1-2.3-1.5l1.8-2.2a5.9 5.9 0 0 0 1.6 1 4.9 4.9 0 0 0 2 .4 2.9 2.9 0 0 0 1.4-.3ZM180.3 118a6.3 6.3 0 0 1-1.7.8 7 7 0 0 1-2.2.3 4.5 4.5 0 0 1-3.5-1.3 5.1 5.1 0 0 1-1.1-3.6v-6h-2.6v-2.6h2.6v-2.8l3.5-.5v3.3h4l-.4 2.7h-3.6v6a2 2 0 0 0 .4 1.3 1.8 1.8 0 0 0 1.4.4 4 4 0 0 0 2-.6Z"/><path class="h" d="M682 231c-23.1.1-46.2 1.4-69.3 1.9-6.6.1-13.1.2-19.7.1l8.5 20.5a10.4 10.4 0 0 1 .9-.8l-2.5 2a8.4 8.4 0 0 1 1.2-.8l-2.9 1.2a7.7 7.7 0 0 1 1.8-.4l-3.2.4c2.2-.2 4.5.3 6.7.2 4-.3 7.9-1.3 11.8-1.8l-3.2.4c21.5-2.8 43.3-1 64.8-3.9 3.7-.5 7.8-.7 11.4-1.8a17 17 0 0 0 7.4-4.2A13.7 13.7 0 0 0 699 231a12.3 12.3 0 0 0-11.6-8.9 1468 1468 0 0 0-83.6.5c-4.2.2-8.5.2-12.6 1.2a17 17 0 0 0-12.8 12 12.6 12.6 0 0 0 1.2 9.3 12 12 0 0 0 22-3 4.9 4.9 0 0 1 .3-.8l-1.3 3a4.6 4.6 0 0 1 .5-.8l-1.9 2.4a6 6 0 0 1 .8-.8l-2.4 2a8.4 8.4 0 0 1 1.3-.8l-2.8 1.2a13.4 13.4 0 0 1 3-.8l-3.1.4c2.6-.3 5.4-.3 8-.4l9.2-.4 17.8-.4h36l20.4.3-11.5-8.9v.3l-.3-3.2v.3l.4-3.2a1.4 1.4 0 0 1-.1.5l1.2-2.9-.2.3 1.9-2.5a4 4 0 0 1-.6.6l2.4-1.8a7 7 0 0 1-.8.4l2.8-1.2c-2.5 1-5.6 1.2-8.3 1.5l3.2-.4c-19.2 2.6-38.6 1.5-57.9 3.2-6.2.6-12.4 1.7-18.6 2.5l3.2-.4c-2.2.2-4.4-.2-6.6-.2a19.2 19.2 0 0 0-13.2 5.5A12 12 0 0 0 593 257c23.1.2 46.2-1 69.3-1.7l19.7-.3a12.5 12.5 0 0 0 8.5-3.5 12.2 12.2 0 0 0 3.5-8.5c-.3-6.5-5.3-12-12-12Z"/><path class="d" d="M606.2 239.7a5.4 5.4 0 0 1-2.3 1.8l4.1 7.2h-4.2l-3.4-6.5h-1v6.5h-3.7v-17h5a7.8 7.8 0 0 1 4.8 1.2 5.4 5.4 0 0 1 .7 6.8Zm-3.7-4.6a3 3 0 0 0-2-.6h-1.2v5h1.4a2.5 2.5 0 0 0 1.8-.7 2.7 2.7 0 0 0 .7-2 2.2 2.2 0 0 0-.7-1.7ZM612.6 243.3a3.5 3.5 0 0 0 1 2.3 2.7 2.7 0 0 0 2 .7 5.4 5.4 0 0 0 3-1l1.5 2a6.5 6.5 0 0 1-2.1 1.4 7.4 7.4 0 0 1-2.7.4 6.4 6.4 0 0 1-3.5-.8 5.5 5.5 0 0 1-2-2.5 9.4 9.4 0 0 1 0-7.1 5.8 5.8 0 0 1 2-2.6 5.4 5.4 0 0 1 3-.9 5.6 5.6 0 0 1 3 .8 5.3 5.3 0 0 1 2 2.3 8.6 8.6 0 0 1 .8 3.6 13.7 13.7 0 0 1-.1 1.4Zm.7-4.7a4.5 4.5 0 0 0-.7 2.4h4.4q0-3.2-2.2-3.2a1.9 1.9 0 0 0-1.5.8ZM629 235.6a3.8 3.8 0 0 1 1.3 1.1l.2-1h3.1v18.5l-3.6-.4v-6.1a3.7 3.7 0 0 1-3 1.5 3.6 3.6 0 0 1-3.4-1.8 10.2 10.2 0 0 1-1-5.2 10.6 10.6 0 0 1 .5-3.6 5.4 5.4 0 0 1 1.6-2.5 4 4 0 0 1 2.6-.8 3.7 3.7 0 0 1 1.7.3Zm-2.3 3.5a7 7 0 0 0-.5 3 10.6 10.6 0 0 0 .2 2.5 2.5 2.5 0 0 0 .7 1.3 1.4 1.4 0 0 0 1 .4c.7 0 1.4-.5 2-1.5V239a2.9 2.9 0 0 0-.8-.8 1.7 1.7 0 0 0-2.5.7ZM640.3 244.6a2 2 0 0 0 .4 1.3 1.1 1.1 0 0 0 .9.4 2 2 0 0 0 1-.4 3.1 3.1 0 0 0 1-1v-9.2h3.6v13h-3.1l-.2-1.5a4.2 4.2 0 0 1-1.6 1.5 4.7 4.7 0 0 1-2.1.5 3.1 3.1 0 0 1-2.6-1.1 4.6 4.6 0 0 1-.9-3v-9.4h3.6ZM653.5 243.3a3.5 3.5 0 0 0 1 2.3 2.7 2.7 0 0 0 2 .7 5.4 5.4 0 0 0 3-1l1.4 2a6.5 6.5 0 0 1-2 1.4 7.3 7.3 0 0 1-2.8.4 6.4 6.4 0 0 1-3.4-.8 5.4 5.4 0 0 1-2.1-2.5 8.6 8.6 0 0 1-.7-3.6 8.8 8.8 0 0 1 .7-3.5 5.9 5.9 0 0 1 2-2.6 5.5 5.5 0 0 1 3.1-.9 5.5 5.5 0 0 1 3 .8 5.2 5.2 0 0 1 2 2.3 8.6 8.6 0 0 1 .7 3.6v1.4Zm.6-4.7a4.5 4.5 0 0 0-.7 2.4h4.5q0-3.2-2.2-3.2a1.9 1.9 0 0 0-1.6.8ZM670.3 246a1 1 0 0 0 .5-.9 1.1 1.1 0 0 0-.2-.7 2.2 2.2 0 0 0-.8-.5 18.9 18.9 0 0 0-1.8-.6 6.6 6.6 0 0 1-2.8-1.5 3.4 3.4 0 0 1-1-2.5 3.7 3.7 0 0 1 .6-2.1 4 4 0 0 1 1.8-1.5 7 7 0 0 1 2.8-.5 7.6 7.6 0 0 1 5 1.6l-1.5 2.3a6.8 6.8 0 0 0-1.7-.8 5.1 5.1 0 0 0-1.7-.3 2.7 2.7 0 0 0-1.3.2.8.8 0 0 0-.4.8.8.8 0 0 0 .2.6 2.5 2.5 0 0 0 .8.5l1.9.6a10.4 10.4 0 0 1 2 .8 3.6 3.6 0 0 1 1.4 1.3 4 4 0 0 1 .4 2 3.7 3.7 0 0 1-.7 2.4 4.7 4.7 0 0 1-2.1 1.4 8 8 0 0 1-2.9.5 8.4 8.4 0 0 1-3-.5 7 7 0 0 1-2.3-1.4l1.8-2.2a6.1 6.1 0 0 0 1.6 1 4.9 4.9 0 0 0 1.9.3 2.9 2.9 0 0 0 1.5-.3ZM688.5 248a6.3 6.3 0 0 1-1.8.9 7.3 7.3 0 0 1-2.2.3 4.5 4.5 0 0 1-3.5-1.3 5.1 5.1 0 0 1-1.1-3.6v-6h-2.6v-2.6h2.6v-2.8l3.6-.5v3.3h3.8l-.3 2.7h-3.5v6a2 2 0 0 0 .4 1.3 1.8 1.8 0 0 0 1.3.4 4 4 0 0 0 2-.6Z"/><path class="c" d="M715 559c20.7-2 41.6-2.7 62.4-2.9s41.7.3 62.5.5l17.4.2h9a66.2 66.2 0 0 1 8.2.2l-3.2-.4a15.2 15.2 0 0 1 3.7 1l-2.8-1.2a9.8 9.8 0 0 1 1.8 1.2l-2.4-1.9a11 11 0 0 1 1.5 1.6l-1.9-2.4a8.3 8.3 0 0 1 1 1.5l-1.2-2.8a8.1 8.1 0 0 1 .4 1.3l-.4-3.2a6.8 6.8 0 0 1 0 1.5l8.8-11.6a27 27 0 0 1-5.7 1.4l3.2-.4c-5.4.7-10.8.3-16.2.2l-14.5-.1c-10.5 0-21 .2-31.4.4-21.7.6-43.4 1.5-65 2.5L717 547a12.6 12.6 0 0 0-8.5 3.5A12 12 0 0 0 717 571l63.7-2.7c22-.9 44.2-1.6 66.3-1.6l16.6.1c3.2.1 6.4.2 9.6.1a41.7 41.7 0 0 0 13-2.2 13 13 0 0 0 6.2-4.3 12.6 12.6 0 0 0 2.5-7.2 14.7 14.7 0 0 0-.2-3 13 13 0 0 0-.6-3 20.4 20.4 0 0 0-15-13.4c-6.3-1.5-13-1-19.4-1-11.7 0-23.5-.2-35.2-.4a1521 1521 0 0 0-70 .1c-13.1.4-26.4 1.2-39.5 2.5a13 13 0 0 0-8.5 3.5 12 12 0 0 0 0 17c2.2 2 5.4 3.8 8.5 3.5Z"/><path class="d" d="M725 548.2a5.5 5.5 0 0 1-2.2 1.7l4.1 7.2h-4.2l-3.4-6.5h-1v6.5h-3.8v-17h5a7.8 7.8 0 0 1 4.9 1.3 4.7 4.7 0 0 1 1.6 3.9 4.8 4.8 0 0 1-1 2.9Zm-3.6-4.7a3 3 0 0 0-2-.6h-1.2v5h1.4a2.5 2.5 0 0 0 1.9-.7 2.7 2.7 0 0 0 .6-2 2.2 2.2 0 0 0-.7-1.7ZM731.5 551.7a3.6 3.6 0 0 0 1 2.3 2.7 2.7 0 0 0 2 .7 5.4 5.4 0 0 0 3-1l1.5 2a6.5 6.5 0 0 1-2.1 1.4 7.3 7.3 0 0 1-2.7.5 6.4 6.4 0 0 1-3.5-1 5.4 5.4 0 0 1-2-2.4 8.7 8.7 0 0 1-.8-3.6 8.8 8.8 0 0 1 .7-3.5 5.8 5.8 0 0 1 2-2.5 6 6 0 0 1 6.1-.2 5.2 5.2 0 0 1 2 2.4 8.6 8.6 0 0 1 .7 3.5 13.8 13.8 0 0 1 0 1.4Zm.7-4.7a4.5 4.5 0 0 0-.7 2.4h4.4q0-3.1-2.2-3.1a1.9 1.9 0 0 0-1.5.7ZM752.2 553.4a2.4 2.4 0 0 0 .1 1 1.2 1.2 0 0 0 .7.6l-.8 2.5a4.6 4.6 0 0 1-1.8-.5 2.8 2.8 0 0 1-1.1-1.2 4.1 4.1 0 0 1-1.8 1.3 5.7 5.7 0 0 1-2.2.5 4.3 4.3 0 0 1-2.2-.6 3.6 3.6 0 0 1-1.4-1.4 4.5 4.5 0 0 1-.5-2.1 4.2 4.2 0 0 1 .7-2.5 4.2 4.2 0 0 1 2-1.5 8.5 8.5 0 0 1 3.2-.5h1.6v-.5c0-1.3-.8-2-2.4-2a8.2 8.2 0 0 0-1.5.2 12.2 12.2 0 0 0-1.8.5l-.8-2.6a13.3 13.3 0 0 1 2.4-.7 11.6 11.6 0 0 1 2.3-.2 5.8 5.8 0 0 1 4 1.1 4.4 4.4 0 0 1 1.3 3.5Zm-4.4 1a2.5 2.5 0 0 0 1-1v-2.2h-1a3.9 3.9 0 0 0-2.1.5 1.7 1.7 0 0 0-.7 1.5 1.6 1.6 0 0 0 .4 1.1 1.6 1.6 0 0 0 1.2.5 2.3 2.3 0 0 0 1.2-.4ZM762 553a1.4 1.4 0 0 0 .3 1.1 1.7 1.7 0 0 0 1.2.4 4.2 4.2 0 0 0 1.7-.4l.8 2.6a6.9 6.9 0 0 1-3.4.8 3.8 3.8 0 0 1-3.2-1.3 5.8 5.8 0 0 1-1-3.7v-11h-3.6V539h7.2ZM793.2 548.2a5.5 5.5 0 0 1-2.3 1.7l4.1 7.2h-4.2l-3.4-6.5h-1v6.5h-3.7v-17h5a7.8 7.8 0 0 1 4.8 1.3 5.4 5.4 0 0 1 .7 6.8Zm-3.7-4.7a3 3 0 0 0-2-.6h-1.2v5h1.4a2.5 2.5 0 0 0 1.9-.7 2.7 2.7 0 0 0 .6-2 2.2 2.2 0 0 0-.7-1.7ZM799.6 551.7a3.6 3.6 0 0 0 1 2.3 2.7 2.7 0 0 0 2 .7 5.4 5.4 0 0 0 3-1l1.5 2a6.5 6.5 0 0 1-2.1 1.4 7.3 7.3 0 0 1-2.7.5 6.4 6.4 0 0 1-3.5-1 5.4 5.4 0 0 1-2-2.4 8.7 8.7 0 0 1-.8-3.6 8.8 8.8 0 0 1 .7-3.5 5.9 5.9 0 0 1 2-2.5 6 6 0 0 1 6.2-.2 5.1 5.1 0 0 1 2 2.4 8.6 8.6 0 0 1 .7 3.5 13.5 13.5 0 0 1-.1 1.4Zm.7-4.7a4.5 4.5 0 0 0-.7 2.4h4.4q0-3.1-2.2-3.1a1.9 1.9 0 0 0-1.5.7ZM816.4 554.5a1 1 0 0 0 .6-1 1.1 1.1 0 0 0-.3-.7 2 2 0 0 0-.8-.5 15.8 15.8 0 0 0-1.8-.6 6.6 6.6 0 0 1-2.8-1.5 3.4 3.4 0 0 1-1-2.5 3.7 3.7 0 0 1 .6-2.1 4.1 4.1 0 0 1 1.8-1.4 7.2 7.2 0 0 1 2.9-.6 7.7 7.7 0 0 1 4.8 1.6l-1.4 2.3a7.6 7.6 0 0 0-1.6-.8 5.1 5.1 0 0 0-1.7-.3 2.6 2.6 0 0 0-1.3.3.8.8 0 0 0-.5.7.8.8 0 0 0 .3.6 2.4 2.4 0 0 0 .8.5 18 18 0 0 0 1.8.6 9.8 9.8 0 0 1 2.2.9 3.5 3.5 0 0 1 1.3 1.3 4 4 0 0 1 .4 2 3.7 3.7 0 0 1-.7 2.3 4.5 4.5 0 0 1-2 1.5 8 8 0 0 1-3 .5 8.3 8.3 0 0 1-3-.6 7 7 0 0 1-2.3-1.4l1.8-2.2a6.4 6.4 0 0 0 1.7 1 5 5 0 0 0 1.8.4 2.9 2.9 0 0 0 1.4-.3ZM833.8 545.4a10.2 10.2 0 0 1 1 5.2 11 11 0 0 1-.5 3.6 5.7 5.7 0 0 1-1.6 2.5 3.7 3.7 0 0 1-2.5.9 3.5 3.5 0 0 1-2.9-1.4v6l-3.6.4v-18.5h3.2l.2 1.4a4.7 4.7 0 0 1 1.6-1.4 3.6 3.6 0 0 1 1.7-.5 3.6 3.6 0 0 1 3.4 1.8Zm-5.6 1.5a3.8 3.8 0 0 0-.9 1.1v5.5a2.8 2.8 0 0 0 .8 1 1.7 1.7 0 0 0 1 .2 1.6 1.6 0 0 0 1.5-1 7 7 0 0 0 .6-3.1 11.5 11.5 0 0 0-.3-2.5 2.4 2.4 0 0 0-.6-1.3 1.4 1.4 0 0 0-1-.3 1.7 1.7 0 0 0-1 .4ZM845.8 544.5a5.4 5.4 0 0 1 2 2.4 10.2 10.2 0 0 1 0 7.4 5.3 5.3 0 0 1-2 2.4 5.7 5.7 0 0 1-3.2.9 5.8 5.8 0 0 1-3.2-.9 5.2 5.2 0 0 1-2-2.4 9.3 9.3 0 0 1-.6-3.7 8.8 8.8 0 0 1 .7-3.7 5.4 5.4 0 0 1 2-2.4 5.6 5.6 0 0 1 3.1-.9 5.7 5.7 0 0 1 3.1.9Zm-4.8 3a6.7 6.7 0 0 0-.6 3 7 7 0 0 0 .6 3.2 1.9 1.9 0 0 0 3.2 0 7 7 0 0 0 .5-3.1 6.7 6.7 0 0 0-.5-3.1 1.8 1.8 0 0 0-3.2 0ZM851 557.1v-13h3.1l.3 1.5a5.9 5.9 0 0 1 1.7-1.5 4.3 4.3 0 0 1 2-.5 3 3 0 0 1 2.4 1 4.3 4.3 0 0 1 1 3v9.5h-3.7v-8.5a5.5 5.5 0 0 0 0-1.2 1.2 1.2 0 0 0-.4-.7 1 1 0 0 0-.7-.2 1.8 1.8 0 0 0-1.1.4 5.2 5.2 0 0 0-1 1v9.2ZM871 554.5a1 1 0 0 0 .4-1 1.1 1.1 0 0 0-.2-.7 2 2 0 0 0-.8-.5 16.5 16.5 0 0 0-1.8-.6 6.6 6.6 0 0 1-2.8-1.5 3.4 3.4 0 0 1-1-2.5 3.7 3.7 0 0 1 .6-2.1 4 4 0 0 1 1.8-1.4 7.1 7.1 0 0 1 2.8-.6 7.7 7.7 0 0 1 5 1.6l-1.5 2.3a7.6 7.6 0 0 0-1.6-.8 5.1 5.1 0 0 0-1.7-.3 2.6 2.6 0 0 0-1.4.3.8.8 0 0 0-.4.7.8.8 0 0 0 .3.6 2.3 2.3 0 0 0 .8.5 18 18 0 0 0 1.8.6 9.8 9.8 0 0 1 2.1.9 3.4 3.4 0 0 1 1.3 1.2 4 4 0 0 1 .4 2 3.7 3.7 0 0 1-.7 2.4 4.5 4.5 0 0 1-2 1.4 8 8 0 0 1-3 .5 8.4 8.4 0 0 1-3-.5 7.1 7.1 0 0 1-2.3-1.4l1.8-2.2a6.4 6.4 0 0 0 1.6 1 5 5 0 0 0 2 .3 2.9 2.9 0 0 0 1.4-.2ZM881.4 551.7a3.6 3.6 0 0 0 .9 2.3 2.8 2.8 0 0 0 2 .7 5.4 5.4 0 0 0 3-1l1.5 2a6.7 6.7 0 0 1-2.1 1.4 7.3 7.3 0 0 1-2.7.5 6.4 6.4 0 0 1-3.4-1 5.5 5.5 0 0 1-2.2-2.4 8.7 8.7 0 0 1-.7-3.6 8.8 8.8 0 0 1 .7-3.5 5.7 5.7 0 0 1 2-2.5 5.4 5.4 0 0 1 3.2-1 5.5 5.5 0 0 1 3 .8 5.2 5.2 0 0 1 2 2.4 8.6 8.6 0 0 1 .7 3.5 11.2 11.2 0 0 1 0 1.4Zm.6-4.7a4.5 4.5 0 0 0-.7 2.4h4.4c0-2.1-.7-3.2-2.1-3.2a1.9 1.9 0 0 0-1.6.8Z"/></svg>