<svg xmlns="http://www.w3.org/2000/svg" viewBox="0 0 1280 640"><defs><style>.c{fill:#66bb6a}.f{fill:#fff}.g{fill:none;stroke:#f06292;stroke-miterlimit:10;stroke-width:3px}.i{fill:#ba68c8}.j{fill:#42a5f5}.m{fill:#f06292}</style></defs><path fill="#263238" d="M0 0h1280v640H0z"/><path d="M1274 6v628H646V6h628m6-6H640v640h640V0Z" fill="#ffa726"/><path class="c" d="M634 6v628H6V6h628m6-6H0v640h640V0Z"/><path d="M691.3 131c15.3-.3 30.5-2 45.7-3.3a365 365 0 0 1 52.5-1.1q8.3.5 16.6 1.5l2.4.3.9.1c.8.1-1.2-.2 0 0l4.5.7 9.5 1.6v-11.6a287 287 0 0 1-13.7 2.5l-3.1.5-1.6.2h.4-.8l-6.1.8c-7.3.7-14.7 1.1-22 1.3-14.6.2-29.2-.5-43.8-.3q-15.5.1-31 1.4c-3 .3-6.1 2.6-6 6a6.1 6.1 0 0 0 6 6q22.4-.3 44.6-.3h41.4l26.3-.3v-12c-16.3 1-32.7 1.7-49 2.4-15.3.6-30.7 1.2-46 2q-14.5.6-28.9 1.5c-3 .1-6.1 2.6-6 6a6.1 6.1 0 0 0 6 6l34 .1 42.2.3 45 .2 42.7.3 35.4.2h3.6l-1.6-11.8-.8.1 1-.1h-.4l-1.6.2-3.5.4-7.8.8c-6 .6-12.1 1-18.2 1.5a2409 2409 0 0 1-42.5 2.6l-43.7 2.2c-11.8.5-23.6 1-35.5 1.8l-46.8 2.8-7.5.5c-3.1.2-6.1 2.6-6 6a6.1 6.1 0 0 0 6 6c16.5 0 33-.3 49.5-.6l54.2-1.4c18-.4 36.1-.8 54.2-1 16.5 0 33 0 49.6.8a499.8 499.8 0 0 1 31.2 2.3l2.2.3h1l.7.2-.7-.1 4.3.6 4 .7L936 147c-22.4 2-44.8 4-67.2 5.4-14.3.9-28.6 1.6-43 2-10.5.3-21.1.5-31.7.6q-16.8.2-33.5 1c-23.1.8-46.2 1.4-69.3 2.3l-7.6.3c-3.1 0-6.1 2.6-6 6a6.1 6.1 0 0 0 6 6l43.4.5h45.1l23.9-.3v-12l-80.5 5.2-22.6 1.5c-3.1.2-6.2 2.6-6 6a6.1 6.1 0 0 0 6 6c12.5 0 25 .3 37.6.6l34.9.8q19.6.3 39.2 0c16.9-.3 33.7-1 50.5-1.7 23-1.2 46-2.7 69-4.4l9.8-.8c3.1-.2 6.2-2.6 6-6-.1-3-2.6-6.3-6-6-23.9 1.9-47.7 3.5-71.6 4.8-17.4.9-34.9 1.6-52.3 2q-20.1.4-40.3.1c-11.7 0-23.4-.4-35-.7-12.3-.3-24.6-.5-37-.6H693v12l80.4-5.2 22.7-1.5c3.1-.2 6.1-2.6 6-6a6 6 0 0 0-6-6q-21.7.3-43.4.3-22.6 0-45.1-.3-12 0-23.9-.3v12c23-1 46-1.5 69.1-2.4 12.6-.4 25.1-.9 37.7-1l31.2-.6c13.6-.3 27.3-1 41-1.8 21.2-1.3 42.4-3 63.6-4.9l9.7-.9c3-.3 5.5-2 5.9-5.2.4-2.7-1.4-6-4.3-6.6a314.2 314.2 0 0 0-40-4.2c-16.2-.8-32.5-1-48.8-1-18 0-36 .4-53.9.8l-54.7 1.4c-16.8.4-33.6.8-50.4.8H684v12l51-3.1 34-1.8 43.3-2.1c14.4-.8 28.9-1.6 43.3-2.6a624.5 624.5 0 0 0 38.9-3.6 6 6 0 0 0 3.6-2.8 6.1 6.1 0 0 0 .7-3.8 6 6 0 0 0-5.9-5.2l-34-.2-42.1-.2-45-.3-42.9-.2-35.3-.2H690v12c16.4-1 32.7-1.7 49-2.4l46.1-2L814 137c3.1-.2 6.2-2.6 6-6a6.1 6.1 0 0 0-6-6q-22.3.3-44.6.3h-41.3l-26.4.3v12a518 518 0 0 1 51.2-1.3c14.5.3 29 .5 43.4-1a282.4 282.4 0 0 0 30.3-4.5 6 6 0 0 0 4.4-5.8c-.1-2.5-1.8-5.3-4.4-5.8a301.4 301.4 0 0 0-60.9-5.1c-16.3.3-32.6 2-48.9 3.4-8.4.7-17 1.3-25.5 1.5-3.1 0-6.1 2.7-6 6a6 6 0 0 0 6 6Z" fill="#4caf50" opacity=".8"/><path class="f" d="M706 140.6a8.4 8.4 0 0 1-4.5 1.1h-5v-16.3h4.8a8 8 0 0 1 4.2 1 3.5 3.5 0 0 1 1.6 3.2 3.3 3.3 0 0 1-.8 2.3 4 4 0 0 1-2 1.2 4.7 4.7 0 0 1 2.5 1.1 3.5 3.5 0 0 1 1 2.7 4 4 0 0 1-1.8 3.7Zm-3.1-12a2.9 2.9 0 0 0-1.8-.5H700v3.8h1.2a2.5 2.5 0 0 0 1.7-.5 2 2 0 0 0 .5-1.5 1.7 1.7 0 0 0-.5-1.4Zm.5 6.4a2.8 2.8 0 0 0-1.9-.5H700v4.4h1.3a3.6 3.6 0 0 0 2-.5 1.8 1.8 0 0 0 .7-1.6 2.1 2.1 0 0 0-.6-1.8ZM720.6 129.2l-.6 5.2h-2.2v-2.3a2.9 2.9 0 0 0-1.7 1.1 6.9 6.9 0 0 0-1.2 2.4v3.6h2.3v2.5H710v-2.5h1.5v-7.5H710v-2.5h4.2l.6 2.8a5.8 5.8 0 0 1 1.6-2.4 3.7 3.7 0 0 1 2.4-.8 4.8 4.8 0 0 1 1.8.4ZM731 129.6a5.1 5.1 0 0 1 2 2.3 8.5 8.5 0 0 1 .7 3.5 8.7 8.7 0 0 1-.7 3.6 5 5 0 0 1-2 2.3 5.5 5.5 0 0 1-3 .8 5.7 5.7 0 0 1-3-.8 5 5 0 0 1-2-2.3 8.9 8.9 0 0 1-.7-3.6 8.5 8.5 0 0 1 .7-3.5 5.3 5.3 0 0 1 2-2.3 5.4 5.4 0 0 1 3-.8 5.5 5.5 0 0 1 3 .8Zm-4.6 2.9a6.5 6.5 0 0 0-.5 3 6.7 6.7 0 0 0 .5 3 1.8 1.8 0 0 0 3.1 0 6.9 6.9 0 0 0 .5-3 6.5 6.5 0 0 0-.5-3 1.8 1.8 0 0 0-3.1 0ZM747.6 129.2l-1.7 12.5h-3.8l-1-8.4-1 8.4h-3.7l-1.7-12.5h3.1l.8 10.2 1.2-8.6h2.9l1 8.6.9-10.2ZM755.3 139.1a1 1 0 0 0 .5-.8 1 1 0 0 0-.2-.7 2 2 0 0 0-.8-.5l-1.8-.6a6.5 6.5 0 0 1-2.7-1.4 3.3 3.3 0 0 1-.9-2.5 3.5 3.5 0 0 1 .6-2 4 4 0 0 1 1.7-1.3 6.8 6.8 0 0 1 2.8-.5 7.3 7.3 0 0 1 4.7 1.5l-1.4 2.2a7 7 0 0 0-1.6-.8 5 5 0 0 0-1.6-.3 2.6 2.6 0 0 0-1.3.3.8.8 0 0 0-.4.7.7.7 0 0 0 .2.6 2.4 2.4 0 0 0 .8.4l1.7.6a10.7 10.7 0 0 1 2 .8 3.5 3.5 0 0 1 1.3 1.3 3.8 3.8 0 0 1 .4 1.9 3.6 3.6 0 0 1-.7 2.2 4.4 4.4 0 0 1-2 1.4 7.6 7.6 0 0 1-2.8.5 8.1 8.1 0 0 1-3-.5 6.8 6.8 0 0 1-2.2-1.4l1.8-2a5.8 5.8 0 0 0 1.6 1 4.8 4.8 0 0 0 1.8.3 2.8 2.8 0 0 0 1.5-.4ZM765.3 136.5a3.4 3.4 0 0 0 .9 2.2 2.6 2.6 0 0 0 1.9.7 5.2 5.2 0 0 0 3-1l1.4 2a6.5 6.5 0 0 1-2 1.3 7.2 7.2 0 0 1-2.6.4 6.1 6.1 0 0 1-3.3-.8 5.3 5.3 0 0 1-2-2.4 8.3 8.3 0 0 1-.7-3.4 8.4 8.4 0 0 1 .7-3.4 5.6 5.6 0 0 1 2-2.4 5.2 5.2 0 0 1 3-1 5.3 5.3 0 0 1 2.8.8 5 5 0 0 1 2 2.3 8.3 8.3 0 0 1 .6 3.4 12.6 12.6 0 0 1 0 1.3Zm.6-4.5a4.3 4.3 0 0 0-.7 2.3h4.3c0-2-.7-3-2-3a1.8 1.8 0 0 0-1.6.7ZM786.2 129.2l-.7 5.2h-2.1v-2.3a3 3 0 0 0-1.7 1.1 7.3 7.3 0 0 0-1.2 2.4v3.6h2.3v2.5h-7.3v-2.5h1.5v-7.5h-1.5v-2.5h4.2l.6 2.8a5.6 5.6 0 0 1 1.6-2.4 3.6 3.6 0 0 1 2.4-.8 4.8 4.8 0 0 1 1.9.4ZM704.8 169.6l-.8-3.5h-4.5l-.8 3.5H695l4.6-16.4h4.4l4.6 16.4Zm-3-13.6-1.7 7.3h3.3ZM713.3 165.6a2 2 0 0 0 .3 1.3 1 1 0 0 0 .9.3 1.9 1.9 0 0 0 1-.3 2.9 2.9 0 0 0 1-1V157h3.4v12.5h-3l-.1-1.5a3.8 3.8 0 0 1-1.6 1.4 4.4 4.4 0 0 1-2 .5 3 3 0 0 1-2.5-1 4.5 4.5 0 0 1-.8-2.9v-9h3.5ZM733.4 168.8a6 6 0 0 1-1.7.9 7 7 0 0 1-2 .3 4.3 4.3 0 0 1-3.4-1.2 5 5 0 0 1-1.2-3.5v-5.7h-2.4v-2.5h2.4v-2.7l3.5-.5v3.2h3.7l-.3 2.5h-3.4v5.7a1.9 1.9 0 0 0 .4 1.4 1.7 1.7 0 0 0 1.2.4 3.9 3.9 0 0 0 2-.6ZM744.1 157.5a5.2 5.2 0 0 1 2 2.3 9.8 9.8 0 0 1 0 7 5 5 0 0 1-2 2.4 5.5 5.5 0 0 1-3 .8 5.7 5.7 0 0 1-3-.8 5 5 0 0 1-1.9-2.3 8.9 8.9 0 0 1-.7-3.6 8.5 8.5 0 0 1 .7-3.5 5.2 5.2 0 0 1 5-3.2 5.5 5.5 0 0 1 3 .9Zm-4.6 2.8a6.5 6.5 0 0 0-.5 3 6.7 6.7 0 0 0 .5 3 1.7 1.7 0 0 0 1.6 1 1.7 1.7 0 0 0 1.6-1 6.9 6.9 0 0 0 .5-3 6.5 6.5 0 0 0-.5-3 1.8 1.8 0 0 0-3.2 0ZM772.2 161a5.2 5.2 0 0 1-2.2 1.7l4 6.9h-4l-3.3-6.3h-1v6.3H762v-16.4h4.8a7.5 7.5 0 0 1 4.6 1.3 4.5 4.5 0 0 1 1.6 3.7 4.5 4.5 0 0 1-.8 2.8Zm-3.5-4.5a2.8 2.8 0 0 0-1.9-.5h-1.2v4.7h1.4a2.4 2.4 0 0 0 1.8-.6 2.6 2.6 0 0 0 .6-1.9 2.1 2.1 0 0 0-.7-1.7ZM778.4 164.4a3.4 3.4 0 0 0 .9 2.2 2.6 2.6 0 0 0 1.9.7 5.2 5.2 0 0 0 3-1l1.4 2a6.5 6.5 0 0 1-2 1.2 7.2 7.2 0 0 1-2.6.5 6.1 6.1 0 0 1-3.3-.8 5.3 5.3 0 0 1-2-2.4 9.1 9.1 0 0 1 0-6.9 5.5 5.5 0 0 1 2-2.4 5.2 5.2 0 0 1 3-.8 5.3 5.3 0 0 1 2.9.7 5 5 0 0 1 1.9 2.2 8.3 8.3 0 0 1 .6 3.5 12.8 12.8 0 0 1 0 1.3Zm.6-4.5a4.3 4.3 0 0 0-.6 2.3h4.2c0-2-.7-3-2-3a1.8 1.8 0 0 0-1.6.7ZM795.1 151.7l3.5.4v17.5h-3l-.3-1.4a4.2 4.2 0 0 1-1.3 1.3 3.6 3.6 0 0 1-1.9.5 3.6 3.6 0 0 1-2.3-.8 5 5 0 0 1-1.5-2.4 12 12 0 0 1-.4-3.5 9.7 9.7 0 0 1 .5-3.5 5.4 5.4 0 0 1 1.6-2.3 3.8 3.8 0 0 1 2.5-.9 3.4 3.4 0 0 1 2.6 1.2Zm-3.1 8.6a6.5 6.5 0 0 0-.5 3 7.2 7.2 0 0 0 .4 3 1.4 1.4 0 0 0 1.4 1c.7 0 1.3-.5 1.9-1.5v-5.4a3 3 0 0 0-.8-.8 1.7 1.7 0 0 0-1-.2 1.6 1.6 0 0 0-1.4 1ZM802 157h6.7v10h3v2.6H802V167h3.3v-7.4H802Zm5.7-6.2a1.9 1.9 0 0 1 .7.7 2.3 2.3 0 0 1 0 2.2 1.8 1.8 0 0 1-.7.7 2.1 2.1 0 0 1-2.1 0 1.9 1.9 0 0 1-.8-.7 2.3 2.3 0 0 1 0-2.2 2 2 0 0 1 .8-.7 2 2 0 0 1 1-.3 2 2 0 0 1 1 .3ZM825.5 157l-.6 5.3h-2.2V160a3 3 0 0 0-1.7 1.1 7.3 7.3 0 0 0-1.2 2.4v3.6h2.3v2.5h-7.3v-2.5h1.6v-7.5h-1.5V157h4.1l.6 2.8a5.6 5.6 0 0 1 1.6-2.4 3.6 3.6 0 0 1 2.4-.8 4.8 4.8 0 0 1 2 .4ZM830.9 164.4a3.4 3.4 0 0 0 .8 2.2 2.6 2.6 0 0 0 2 .7 5.1 5.1 0 0 0 3-1l1.3 2a6.2 6.2 0 0 1-2 1.2 7.2 7.2 0 0 1-2.6.5 6.1 6.1 0 0 1-3.3-.8 5.2 5.2 0 0 1-2-2.4 8.3 8.3 0 0 1-.7-3.5 8.4 8.4 0 0 1 .7-3.4 5.6 5.6 0 0 1 2-2.4 5.2 5.2 0 0 1 3-.8 5.3 5.3 0 0 1 2.9.7 5 5 0 0 1 1.9 2.2 8.1 8.1 0 0 1 .6 3.5 10.5 10.5 0 0 1 0 1.3Zm.6-4.5a4.4 4.4 0 0 0-.7 2.3h4.3c0-2-.7-3-2.1-3a1.8 1.8 0 0 0-1.5.7ZM848.4 166.8a7 7 0 0 0 1.3-.8l1.5 2.3a6 6 0 0 1-1.9 1.2 6.3 6.3 0 0 1-2.4.5 6 6 0 0 1-3.2-.8 5.4 5.4 0 0 1-2-2.3 7.8 7.8 0 0 1-.8-3.5 8 8 0 0 1 .8-3.5 5.8 5.8 0 0 1 2-2.4 5.8 5.8 0 0 1 3.3-.9 6.8 6.8 0 0 1 2.3.4 6.3 6.3 0 0 1 2 1.2l-1.6 2.3a4.3 4.3 0 0 0-2.6-1 2.2 2.2 0 0 0-1.9.9 5 5 0 0 0-.7 3 4.5 4.5 0 0 0 .7 2.8 2.3 2.3 0 0 0 2 .8 3 3 0 0 0 1.2-.2ZM864.5 168.8a6.3 6.3 0 0 1-1.7.9 7.1 7.1 0 0 1-2 .3 4.3 4.3 0 0 1-3.4-1.2 5 5 0 0 1-1.2-3.5v-5.7h-2.4v-2.5h2.4v-2.7l3.5-.5v3.2h3.7l-.3 2.5h-3.4v5.7a1.9 1.9 0 0 0 .4 1.4 1.7 1.7 0 0 0 1.2.4 3.9 3.9 0 0 0 2-.6ZM867.6 157h6.7v10h3v2.6h-9.7V167h3.3v-7.4h-3.2Zm5.6-6.2a2 2 0 0 1 .8.7 2.3 2.3 0 0 1 0 2.2 2 2 0 0 1-.8.7 2 2 0 0 1-1 .3 2 2 0 0 1-1-.3 1.8 1.8 0 0 1-.8-.7 2.3 2.3 0 0 1 0-2.2 1.8 1.8 0 0 1 .8-.7 2.1 2.1 0 0 1 2 0ZM888.4 157.5a5 5 0 0 1 1.9 2.3 8.5 8.5 0 0 1 .7 3.5 8.9 8.9 0 0 1-.7 3.6 5.1 5.1 0 0 1-2 2.3 5.5 5.5 0 0 1-3 .8 5.7 5.7 0 0 1-3-.8 5 5 0 0 1-1.9-2.3 9.7 9.7 0 0 1 0-7 5.3 5.3 0 0 1 2-2.4 5.3 5.3 0 0 1 3-.9 5.5 5.5 0 0 1 3 .9Zm-4.6 2.8a9 9 0 0 0 0 6 1.8 1.8 0 0 0 3 0 6.7 6.7 0 0 0 .6-3 6.5 6.5 0 0 0-.5-3 1.8 1.8 0 0 0-3.1 0ZM893.4 169.6V157h3l.2 1.4a5.3 5.3 0 0 1 1.7-1.4 4.2 4.2 0 0 1 2-.5 3 3 0 0 1 2.3 1 4.1 4.1 0 0 1 .9 2.8v9.2H900v-8.1a5.7 5.7 0 0 0-.1-1.3 1.1 1.1 0 0 0-.3-.6 1 1 0 0 0-.7-.2 1.7 1.7 0 0 0-1 .4 4.8 4.8 0 0 0-1 1v8.8Z"/><path class="g" d="M1258.5 467.5h-12"/><path d="M1222 467.5c-235.2-.3-486.7-3.8-721.3-4" stroke-dasharray="24.45 24.45" fill="none" stroke="#f06292" stroke-miterlimit="10" stroke-width="3"/><path class="g" d="M488.5 463.5h-12M526.1 453c-2.4-.1-4.8 2.1-7.2 3.9a28.9 28.9 0 0 1-3 2M513 460.4a20.6 20.6 0 0 1-11.8 1.4c-.6 1.6.5 4 1.4 4.6a67.6 67.6 0 0 0 5.8 3.8M520.8 475.8a48.3 48.3 0 0 0 11.7 2.2"/><path class="i" d="M469.5 388q52.3-.4 104.6-.5l102.6-.2h102.7l103.1.2c16 0 32.2.4 48.3 0l15.4-.8c1.5-.1 4.2.3 5-1.2 1.2-1.8 1-4.8 1.2-6.9.5-4.8.7-9.6 1-14.5.7-16 1.1-32.1 1.4-48.2q.7-32 1-64.1.4-34.6.4-69.3 0-31.4-.4-62.8l-.2-13a1.5 1.5 0 0 0-1.5-1.5q-94.7-1-189.5-1.6-94.2-.6-188.4-.6H469.5a1.5 1.5 0 0 0 0 3q94.8-.1 189.6.1 94.2.3 188.4 1l106.6 1-1.5-1.4c.4 19.6.5 39.3.6 59l-.2 67.7-.8 66.2A2938.7 2938.7 0 0 1 950 371c-.2 3.5-.5 7.9-1 10.9 0 .5 0 1-.2 1.4v.5c-.1.5-.1 0 0 0s-.3.2 0 0c1.5-.8 1-.4.2-.4l-5.5.3c-13.3.8-26.7.7-40 .7l-102.3-.1H597.9q-51.4.1-102.7.4l-25.6.2a1.5 1.5 0 0 0 0 3Z"/><path class="j" d="M464.5 191h93.9l91.9-.3 92.4-.1H812.9c3.8 0 7.8-.4 11.6 0 1.9.2 2.3 1 2.4 2.7l.2 6c1 31.7.7 63.4 0 95l-.4 11.6 1.5-1.5q-68.9-.3-137.8-.2H553.9l-77.4-.2a1.5 1.5 0 0 0 0 3q69 .3 137.8.2h136.5l77.4.2a1.5 1.5 0 0 0 1.5-1.5c1-32.1 1.5-64.3.7-96.5l-.3-12.3c-.1-2.6.4-6.4-1.8-8.3s-6.4-1.4-9.2-1.4h-59.7l-94.4.2-93.5.2h-107a1.5 1.5 0 0 0 0 3Z"/><path class="j" d="M719.6 184.5a150.5 150.5 0 0 1 35.6 5.5l-.9-2.2c-.4.7-1.8.7-2.5.8l-4 .8q-4 .7-7.8 1.7a136.7 136.7 0 0 0-15.2 4.8c-1.8.7-1 3.6.8 3a138 138 0 0 1 16.5-5.2q4.1-1 8.3-1.8c2.3-.4 5.1-.4 6.5-2.6a1.5 1.5 0 0 0-1-2.2 153.5 153.5 0 0 0-36.3-5.6c-2 0-2 3 0 3Z"/><rect x="162" y="82" width="276" height="136" rx="15.3" fill="#64b5f6"/><path d="M422.7 84A13.3 13.3 0 0 1 436 97.3v105.4a13.3 13.3 0 0 1-13.3 13.3H177.3a13.3 13.3 0 0 1-13.3-13.3V97.3A13.3 13.3 0 0 1 177.3 84h245.4m0-4H177.3A17.3 17.3 0 0 0 160 97.3v105.4a17.3 17.3 0 0 0 17.3 17.3h245.4a17.3 17.3 0 0 0 17.3-17.3V97.3A17.3 17.3 0 0 0 422.7 80Z" fill="#1e88e5"/><rect class="m" x="162" y="282" width="276" height="276" rx="15.3"/><path d="M422.7 284a13.3 13.3 0 0 1 13.3 13.3v245.4a13.3 13.3 0 0 1-13.3 13.3H177.3a13.3 13.3 0 0 1-13.3-13.3V297.3a13.3 13.3 0 0 1 13.3-13.3h245.4m0-4H177.3a17.3 17.3 0 0 0-17.3 17.3v245.4a17.3 17.3 0 0 0 17.3 17.3h245.4a17.3 17.3 0 0 0 17.3-17.3V297.3a17.3 17.3 0 0 0-17.3-17.3Z" fill="#d81b60"/><path class="i" d="m542.4 91.6-32 8.3c-1.5.4-1.2 2.4 0 3l30.6 12.5c1.8.8 2.6-2.1.8-2.9L511.2 100v3l32-8.4a1.5 1.5 0 0 0-.8-3Z"/><path class="g" d="M464.5 535.5h12"/><path d="M499.8 535.5c247.6.4 487.3 2.7 735 3" stroke-dasharray="23.33 23.33" fill="none" stroke="#f06292" stroke-miterlimit="10" stroke-width="3"/><path class="g" d="M1246.5 538.5h12"/><path d="M789 526.3c10.6 1.7 21 7.3 31.5 9a431.4 431.4 0 0 1-31 15" stroke-dasharray="24" fill="none" stroke="#f06292" stroke-miterlimit="10" stroke-width="3"/><path class="j" d="M534.1 292.6a65.2 65.2 0 0 1-25.6 11.4c-1.1.2-1.5 2.2-.3 2.7a289 289 0 0 0 36.3 12.9 1.5 1.5 0 0 0 .8-3 282.2 282.2 0 0 1-35.6-12.5l-.4 2.7c9.6-2.2 19.2-5.9 27-12 1.4-1.2-.7-3.3-2.2-2.1Z"/><path class="i" d="M789.8 376.8c1.1-.3 2.4.3 3.4.6l4 1.3 7.8 2.6 15.4 5v-2.8c-11.2 2.4-21.8 6.9-32.4 11.3a1.5 1.5 0 0 0-.5 2 1.6 1.6 0 0 0 2 .6c10.3-4.3 20.7-8.6 31.7-11 1.5-.4 1.3-2.5 0-3l-16.4-5.3-8-2.6c-2.3-.8-5.2-2.3-7.8-1.5-1.8.5-1 3.4.8 2.8Z"/><path class="f" d="M252.3 163.4a14 14 0 0 1-3.9 2 15.6 15.6 0 0 1-4.8.6q-5 0-7.7-2.8c-1.7-2-2.5-4.7-2.5-8.1v-13.4h-5.6v-6h5.6v-6.3l7.9-1v7.3h8.5l-.7 6h-7.8v13.4a4.5 4.5 0 0 0 .9 3.1 3.8 3.8 0 0 0 2.9 1 8.7 8.7 0 0 0 4.6-1.4ZM265.3 153a8 8 0 0 0 2 5 6 6 0 0 0 4.4 1.7 11.7 11.7 0 0 0 6.8-2.4l3.2 4.7a14.6 14.6 0 0 1-4.7 3 15.9 15.9 0 0 1-6 1.1 13.9 13.9 0 0 1-7.5-2 12.2 12.2 0 0 1-4.7-5.5 19.8 19.8 0 0 1-1.6-8.1 20.1 20.1 0 0 1 1.6-8 13.1 13.1 0 0 1 4.4-5.7 11.8 11.8 0 0 1 7-2 12 12 0 0 1 6.6 1.8 11.6 11.6 0 0 1 4.4 5.2 19.6 19.6 0 0 1 1.5 8 28.4 28.4 0 0 1-.2 3.2Zm1.4-10.6a10.2 10.2 0 0 0-1.5 5.3h9.8q0-7-4.8-7a4 4 0 0 0-3.4 1.6ZM302.4 159a2.3 2.3 0 0 0 1.2-2 2.5 2.5 0 0 0-.5-1.6 4.5 4.5 0 0 0-1.8-1.2 39 39 0 0 0-4-1.4 14.4 14.4 0 0 1-6.2-3.2 7.7 7.7 0 0 1-2-5.8 8.5 8.5 0 0 1 1.2-4.7 9 9 0 0 1 4-3.2 15.4 15.4 0 0 1 6.2-1.2 16.6 16.6 0 0 1 10.8 3.6l-3.1 5.1a16.4 16.4 0 0 0-3.7-1.8 11.3 11.3 0 0 0-3.7-.6 5.7 5.7 0 0 0-2.9.5 1.9 1.9 0 0 0-1 1.7 1.8 1.8 0 0 0 .6 1.3 5.5 5.5 0 0 0 1.7 1.1l4 1.4a22.3 22.3 0 0 1 4.7 2 7.7 7.7 0 0 1 2.8 2.8 9 9 0 0 1 1 4.6 8.5 8.5 0 0 1-1.7 5.3 10.3 10.3 0 0 1-4.5 3.3 17.3 17.3 0 0 1-6.3 1 18 18 0 0 1-6.7-1 15.4 15.4 0 0 1-5.2-3.3l4-5a13.5 13.5 0 0 0 3.7 2.3 10.8 10.8 0 0 0 4.2.8 6.3 6.3 0 0 0 3.2-.7ZM342.4 163.4a13.8 13.8 0 0 1-3.8 2 15.5 15.5 0 0 1-4.9.6q-5 0-7.6-2.8t-2.6-8.1v-13.4h-5.6v-6h5.6v-6.3l7.9-1v7.3h8.6l-.8 6h-7.8v13.4a4.5 4.5 0 0 0 1 3.1 3.8 3.8 0 0 0 2.8 1 8.7 8.7 0 0 0 4.7-1.4ZM362.4 159a2.3 2.3 0 0 0 1.2-2 2.6 2.6 0 0 0-.4-1.6 4.5 4.5 0 0 0-1.8-1.2 38.4 38.4 0 0 0-4-1.4 14.4 14.4 0 0 1-6.2-3.2 7.7 7.7 0 0 1-2.1-5.8 8.4 8.4 0 0 1 1.3-4.7 8.9 8.9 0 0 1 4-3.2 15.3 15.3 0 0 1 6.2-1.2 16.6 16.6 0 0 1 10.8 3.6l-3.2 5.1a16.4 16.4 0 0 0-3.6-1.8 11.4 11.4 0 0 0-3.8-.6 5.6 5.6 0 0 0-2.8.5 1.9 1.9 0 0 0-1 1.7 1.8 1.8 0 0 0 .5 1.3 5.3 5.3 0 0 0 1.8 1.1q1.3.6 4 1.4a22 22 0 0 1 4.7 2 7.8 7.8 0 0 1 2.8 2.8 9 9 0 0 1 1 4.6 8.4 8.4 0 0 1-1.7 5.3 10.2 10.2 0 0 1-4.5 3.3 17.3 17.3 0 0 1-6.4 1 18 18 0 0 1-6.7-1 15.4 15.4 0 0 1-5-3.3l4-5a13.5 13.5 0 0 0 3.5 2.3 10.7 10.7 0 0 0 4.2.8 6.3 6.3 0 0 0 3.2-.7ZM216.8 403.8a12.1 12.1 0 0 1 4.5 5.4 20.6 20.6 0 0 1 1.5 8.3 21 21 0 0 1-1.5 8.4 11.9 11.9 0 0 1-4.5 5.4 13.8 13.8 0 0 1-13.9 0 11.6 11.6 0 0 1-4.4-5.3 21.1 21.1 0 0 1-1.5-8.4 20.3 20.3 0 0 1 1.5-8.2 12.8 12.8 0 0 1 18.3-5.6Zm-10.5 6.7c-.8 1.5-1.2 3.8-1.2 7s.4 5.6 1.2 7a4 4 0 0 0 7.2 0q1.1-2.2 1.1-7t-1.1-7a4 4 0 0 0-7.2 0ZM228.4 432.3v-29.5h7l.5 3.4a12.6 12.6 0 0 1 3.7-3.3 9.3 9.3 0 0 1 4.5-1 6.6 6.6 0 0 1 5.4 2.3 9.8 9.8 0 0 1 2 6.5v21.6h-8v-19.1a13.5 13.5 0 0 0-.2-3 2.6 2.6 0 0 0-.8-1.4 2.3 2.3 0 0 0-1.5-.5 3.9 3.9 0 0 0-2.4.9 11.2 11.2 0 0 0-2.3 2.5v20.6ZM284.5 392.1l-2.2 5.7a14.6 14.6 0 0 0-5.7-1.1 5 5 0 0 0-3.4 1 4.1 4.1 0 0 0-1 3v4h8.7l-.9 6h-7.8v21.6h-7.8v-21.5h-5.6v-6.1h5.6v-4.3a10.8 10.8 0 0 1 1.2-5.2 8.9 8.9 0 0 1 3.8-3.6 12.8 12.8 0 0 1 6-1.4 21 21 0 0 1 9 1.9ZM295.3 420a8.1 8.1 0 0 0 2.1 5.2 6 6 0 0 0 4.3 1.6 11.7 11.7 0 0 0 6.8-2.4l3.2 4.8a14.7 14.7 0 0 1-4.7 3 15.9 15.9 0 0 1-5.9 1 13.8 13.8 0 0 1-7.6-2 12.2 12.2 0 0 1-4.6-5.5 21.7 21.7 0 0 1 0-16 13 13 0 0 1 4.4-5.7 11.7 11.7 0 0 1 7-2.1 12 12 0 0 1 6.6 1.8 11.7 11.7 0 0 1 4.3 5.2 19.6 19.6 0 0 1 1.5 8 28.3 28.3 0 0 1-.1 3.2Zm1.5-10.5a10.2 10.2 0 0 0-1.6 5.3h9.8q0-7-4.8-7a4 4 0 0 0-3.4 1.7ZM342.5 430.5a14 14 0 0 1-4 2 15.5 15.5 0 0 1-4.8.7q-5 0-7.6-2.9c-1.8-2-2.6-4.6-2.6-8v-13.4h-5.6v-6h5.6v-6.4l7.9-1v7.4h8.6l-.8 6h-7.8v13.3a4.5 4.5 0 0 0 1 3.1 3.8 3.8 0 0 0 2.8 1 8.8 8.8 0 0 0 4.7-1.3ZM365.6 425.6a15.6 15.6 0 0 0 3-1.8l3.5 5.5a14.3 14.3 0 0 1-9.9 3.9 13.5 13.5 0 0 1-7.3-2 12.6 12.6 0 0 1-4.7-5.4 18.7 18.7 0 0 1-1.7-8 18.9 18.9 0 0 1 1.7-8.3 13 13 0 0 1 12.2-7.6 14.9 14.9 0 0 1 5.3.9 14 14 0 0 1 4.4 2.7l-3.4 5.3a9.7 9.7 0 0 0-6-2.2 5 5 0 0 0-4.4 2.2c-1 1.4-1.6 3.8-1.6 7s.6 5.2 1.6 6.5a5.3 5.3 0 0 0 4.3 2 7 7 0 0 0 3-.7ZM386.5 405.8a10 10 0 0 1 7.8-4 6.6 6.6 0 0 1 5.4 2.4 9.9 9.9 0 0 1 2 6.5v21.6h-8V413a13 13 0 0 0-.2-2.8 2.6 2.6 0 0 0-.8-1.5 2.3 2.3 0 0 0-1.5-.5 3.7 3.7 0 0 0-2.4 1 12.7 12.7 0 0 0-2.3 2.6v20.4h-7.9V391l8-.8ZM1046.1 67.9h8l-4.6 38.7h-9.4l-2.8-27.7-3 27.7h-9.7l-4.1-38.7h8.5l1.3 30.9 3.2-26.5h7.8l3 26.5ZM1078.2 77.9a12.6 12.6 0 0 1 4.9 5.5 19.2 19.2 0 0 1 1.7 8.3 19.5 19.5 0 0 1-1.7 8.5 12.3 12.3 0 0 1-5 5.5 14.8 14.8 0 0 1-7.6 1.9 15 15 0 0 1-7.7-2 12.1 12.1 0 0 1-5-5.3 19.7 19.7 0 0 1-1.6-8.6 19 19 0 0 1 1.7-8.2 12.8 12.8 0 0 1 5-5.6 14.3 14.3 0 0 1 7.6-2 14.6 14.6 0 0 1 7.7 2Zm-11.7 6.8c-.9 1.5-1.3 3.8-1.3 7s.4 5.6 1.3 7.1a4.7 4.7 0 0 0 8 0q1.3-2.2 1.3-7.1c0-3.2-.5-5.6-1.3-7a4.7 4.7 0 0 0-8 0ZM1118.3 77l-1.7 12.3h-5.5V84a7.3 7.3 0 0 0-4.3 2.6 16.4 16.4 0 0 0-3 5.7v8.5h5.8v6h-18.4v-6h3.9V82.8h-4v-5.9h10.6l1.6 6.7a13.4 13.4 0 0 1 4-5.7 9.6 9.6 0 0 1 6-1.9 12.8 12.8 0 0 1 5 1ZM1124.2 65.1l8.7-.9v42.4h-8.7Zm18.7 11.8h9.2l-9.7 13.2 10.5 16.5h-10l-9.7-16.3ZM1165 94.3a7.8 7.8 0 0 0 2.3 5.2 7 7 0 0 0 4.8 1.6 13.8 13.8 0 0 0 7.5-2.4l3.5 4.8a16.4 16.4 0 0 1-5.2 3 19.2 19.2 0 0 1-6.5 1 16.5 16.5 0 0 1-8.4-2 12.8 12.8 0 0 1-5.2-5.5 18.5 18.5 0 0 1-1.7-8.2 18.7 18.7 0 0 1 1.7-8 13.4 13.4 0 0 1 5-5.7 14 14 0 0 1 7.6-2.1 14.3 14.3 0 0 1 7.3 1.8 12 12 0 0 1 4.8 5.3 18.3 18.3 0 0 1 1.7 8.1 26.5 26.5 0 0 1-.1 3.2Zm1.6-10.7a9.8 9.8 0 0 0-1.7 5.4h10.8q0-7.1-5.3-7.1a4.7 4.7 0 0 0-3.8 1.7ZM1218 77l-1.6 12.3h-5.5V84a7.3 7.3 0 0 0-4.3 2.6 16.4 16.4 0 0 0-3 5.7v8.5h5.8v6h-18.5v-6h4V82.8h-4v-5.9h10.6l1.6 6.7a13.4 13.4 0 0 1 4-5.7 9.6 9.6 0 0 1 6-1.9 12.8 12.8 0 0 1 4.9 1Z"/><path class="c" d="M658.5 125.8a156.3 156.3 0 0 0-17.4 24.7 1.6 1.6 0 0 0 .6 2l14.2 10.5a106 106 0 0 0 13.8 9c1.7 1 3.2-1.6 1.5-2.5a106.1 106.1 0 0 1-13.8-9L643.2 150l.5 2a152.8 152.8 0 0 1 17-24c1.2-1.5-.9-3.6-2.2-2.1Z"/><path class="c" d="M652.3 170.4a12 12 0 0 0 4.9 2.2l6.1 1.9 6.2 1.8c1.5.5 3.4 1.2 4.7-.2s.4-3.4-.2-5l-2.4-6-4.8-11.9a1.6 1.6 0 0 0-1.8-1 1.5 1.5 0 0 0-1 1.8l4 10c1.3 3.2 2.7 6.4 3.9 9.7l.1.5c.4-.2.5-.3.2-.3l-.9-.2-2.6-.8-5-1.4-4.8-1.5c-1.4-.4-3.2-.7-4.4-1.7-1.4-1.3-3.5.8-2 2.1Z"/><path class="f" d="M86.7 68a17.8 17.8 0 0 1 5.4 3.2l-4.4 5.4a11.7 11.7 0 0 0-7.7-2.9 7.5 7.5 0 0 0-4.5 1.5 9.4 9.4 0 0 0-3 4.4 21.5 21.5 0 0 0-1.2 7.6q0 6.8 2.4 10a7.7 7.7 0 0 0 6.5 3.3 10.3 10.3 0 0 0 3.3-.5 11.7 11.7 0 0 0 2.6-1.2 22.2 22.2 0 0 0 2.4-1.8l4.1 5.3a17.6 17.6 0 0 1-12.9 5.2 18.1 18.1 0 0 1-9.3-2.3 15.8 15.8 0 0 1-6.3-7A24.9 24.9 0 0 1 62 87a23.7 23.7 0 0 1 2.3-11 16.7 16.7 0 0 1 6.4-7 17.9 17.9 0 0 1 9.2-2.3 20.4 20.4 0 0 1 7 1.2ZM112.5 97.3a3 3 0 0 0 1 2.5 4.4 4.4 0 0 0 2.8.8 10.8 10.8 0 0 0 4.1-.9l2.1 6a17.9 17.9 0 0 1-8.5 2q-5.2 0-7.7-3t-2.6-8.5v-25H95v-6h17.4ZM131.5 77h16.8v23.6h7.5v6h-24.6v-6h8.4V83h-8.1Zm14.2-15a4.8 4.8 0 0 1 2.5 4.4 5 5 0 0 1-.7 2.5 4.9 4.9 0 0 1-1.8 1.8 5.3 5.3 0 0 1-2.7.7 5.5 5.5 0 0 1-2.7-.7 4.8 4.8 0 0 1-1.8-1.8 5 5 0 0 1-.7-2.5 5 5 0 0 1 .7-2.6 4.8 4.8 0 0 1 1.8-1.7 5.6 5.6 0 0 1 2.7-.7 5.4 5.4 0 0 1 2.7.6ZM171.2 94.3a7.8 7.8 0 0 0 2.2 5.2 7 7 0 0 0 4.8 1.6 13.8 13.8 0 0 0 7.6-2.4l3.5 4.8a16.4 16.4 0 0 1-5.2 3 19.2 19.2 0 0 1-6.6 1 16.5 16.5 0 0 1-8.3-2 12.8 12.8 0 0 1-5.2-5.5 18.5 18.5 0 0 1-1.7-8.2 18.7 18.7 0 0 1 1.6-8 13.4 13.4 0 0 1 5-5.7 14 14 0 0 1 7.7-2.1 14.3 14.3 0 0 1 7.3 1.8 12 12 0 0 1 4.8 5.3 18.3 18.3 0 0 1 1.7 8.1 26.5 26.5 0 0 1-.2 3.2Zm1.6-10.7A9.8 9.8 0 0 0 171 89h10.8q0-7.2-5.3-7.2a4.7 4.7 0 0 0-3.8 1.8ZM196.8 106.6V77h7.6l.6 3.5a13.8 13.8 0 0 1 4.2-3.4 11.2 11.2 0 0 1 5-1 7.7 7.7 0 0 1 6 2.3 9.3 9.3 0 0 1 2.1 6.5v21.8h-8.7V87.4a12.4 12.4 0 0 0-.3-3 2.7 2.7 0 0 0-.9-1.5 2.7 2.7 0 0 0-1.7-.4 4.5 4.5 0 0 0-2.6.8 11.7 11.7 0 0 0-2.5 2.6v20.7ZM256.5 104.9a16.2 16.2 0 0 1-4.3 2 19 19 0 0 1-5.3.7c-3.8 0-6.6-1-8.5-2.9s-2.9-4.7-2.9-8.2V83h-6.2v-6h6.2v-6.5l8.8-1v7.4h9.4L253 83h-8.6v13.5a4.3 4.3 0 0 0 1 3.2 4.5 4.5 0 0 0 3.2 1 10.2 10.2 0 0 0 5.1-1.4Z"/><path class="j" d="m683.2 281-71.8.9-20.4.2 8.6 6.6v-.2l.3 2.4a1.5 1.5 0 0 1 0-.6l-.3 2.4a2 2 0 0 1 .1-.4l-.9 2.1a1.9 1.9 0 0 1 .3-.4l-1.4 1.8a4.4 4.4 0 0 1 .6-.6l-1.9 1.4a6.5 6.5 0 0 1 1-.5l-2.1.9a8.3 8.3 0 0 1 1.8-.5l-2.4.3a85.4 85.4 0 0 1 8.8-.5h27c6 0 12 0 18-.5l18-1.7a212 212 0 0 1 20.1-1.3 9 9 0 0 0 8.9-7.8c.5-4.2-2-8.8-6.5-9.8-26-5.9-52.4-3.6-78.7-3-7.4.2-14.7.2-22.1-.1a9 9 0 0 0-9 9 9.2 9.2 0 0 0 9 9c22.6 1 45.1-1.4 67.7-.8a185.6 185.6 0 0 1 19 1.4l-2.4-.3c4 .6 7.9 1.2 11.8 2.1l2.4-17.7c-13.9 0-27.5 2.4-41.3 3.2s-27.4 0-41.2.3c-4 .1-8.5 0-12.5 1a14.3 14.3 0 0 0-6.6 3.6 11.1 11.1 0 0 0-2.8 10.6c.8 3.8 4.9 6.7 8.6 6.6l71.8-.9 20.5-.3c4.7 0 9.2-4 9-9s-4-9-9-9Z"/><path class="f" d="M603.2 282.7a5.4 5.4 0 0 1-2.3 1.8l4.1 7.2h-4.2l-3.4-6.5h-1v6.5h-3.7v-17h5a7.8 7.8 0 0 1 4.8 1.2 5.4 5.4 0 0 1 .7 6.8Zm-3.7-4.6a3 3 0 0 0-2-.6h-1.2v5h1.4a2.5 2.5 0 0 0 1.8-.7 2.7 2.7 0 0 0 .7-2 2.2 2.2 0 0 0-.7-1.7ZM609.6 286.3a3.5 3.5 0 0 0 1 2.3 2.7 2.7 0 0 0 2 .7 5.4 5.4 0 0 0 3-1l1.5 2a6.5 6.5 0 0 1-2.1 1.4 7.4 7.4 0 0 1-2.7.4 6.4 6.4 0 0 1-3.5-.8 5.5 5.5 0 0 1-2-2.5 9.4 9.4 0 0 1 0-7.1 5.8 5.8 0 0 1 2-2.6 5.4 5.4 0 0 1 3-.9 5.6 5.6 0 0 1 3 .8 5.3 5.3 0 0 1 2 2.3 8.6 8.6 0 0 1 .8 3.6 11.3 11.3 0 0 1-.1 1.4Zm.7-4.7a4.5 4.5 0 0 0-.7 2.4h4.4q0-3.2-2.2-3.2a1.9 1.9 0 0 0-1.5.8ZM626 278.6a3.8 3.8 0 0 1 1.3 1.1l.2-1h3.1v18.5l-3.6-.4v-6.2a3.7 3.7 0 0 1-3 1.5 3.6 3.6 0 0 1-3.4-1.8 10.2 10.2 0 0 1-1-5.1 10.6 10.6 0 0 1 .5-3.6 5.4 5.4 0 0 1 1.6-2.5 4 4 0 0 1 2.6-.9 3.7 3.7 0 0 1 1.7.4Zm-2.3 3.5a7 7 0 0 0-.5 3 10.6 10.6 0 0 0 .2 2.5 2.5 2.5 0 0 0 .7 1.3 1.4 1.4 0 0 0 1 .4c.7 0 1.4-.5 2-1.5V282a2.9 2.9 0 0 0-.8-.8 1.7 1.7 0 0 0-2.5.7ZM637.3 287.6a2 2 0 0 0 .4 1.3 1.1 1.1 0 0 0 .9.4 2 2 0 0 0 1-.4 3.1 3.1 0 0 0 1-1v-9.2h3.6v13h-3.1l-.2-1.5a4.2 4.2 0 0 1-1.6 1.5 4.7 4.7 0 0 1-2.1.5 3.1 3.1 0 0 1-2.6-1.1 4.6 4.6 0 0 1-.9-3v-9.4h3.6ZM650.5 286.3a3.5 3.5 0 0 0 1 2.3 2.7 2.7 0 0 0 2 .7 5.4 5.4 0 0 0 3-1l1.4 2a6.5 6.5 0 0 1-2 1.4 7.3 7.3 0 0 1-2.8.4 6.4 6.4 0 0 1-3.4-.8 5.4 5.4 0 0 1-2.1-2.5 8.6 8.6 0 0 1-.7-3.6 8.8 8.8 0 0 1 .7-3.5 5.9 5.9 0 0 1 2-2.6 5.5 5.5 0 0 1 3.1-.9 5.5 5.5 0 0 1 3 .8 5.2 5.2 0 0 1 2 2.3 8.6 8.6 0 0 1 .7 3.6v1.4Zm.6-4.7a4.5 4.5 0 0 0-.7 2.4h4.5q0-3.2-2.2-3.2a1.9 1.9 0 0 0-1.6.8ZM667.3 289a1 1 0 0 0 .5-.9 1.1 1.1 0 0 0-.2-.7 2.2 2.2 0 0 0-.8-.5 18.9 18.9 0 0 0-1.8-.6 6.6 6.6 0 0 1-2.8-1.5 3.4 3.4 0 0 1-1-2.5 3.7 3.7 0 0 1 .6-2.1 4 4 0 0 1 1.8-1.5 7 7 0 0 1 2.8-.5 7.6 7.6 0 0 1 5 1.6l-1.5 2.3a6.8 6.8 0 0 0-1.7-.8 5.1 5.1 0 0 0-1.7-.3 2.7 2.7 0 0 0-1.3.2.8.8 0 0 0-.4.8.8.8 0 0 0 .2.6 2.5 2.5 0 0 0 .8.5l1.9.6a10.4 10.4 0 0 1 2 .9 3.6 3.6 0 0 1 1.4 1.2 4 4 0 0 1 .4 2 3.7 3.7 0 0 1-.7 2.4 4.7 4.7 0 0 1-2.1 1.4 8 8 0 0 1-2.9.5 8.4 8.4 0 0 1-3-.5 7 7 0 0 1-2.3-1.4l1.8-2.2a6.1 6.1 0 0 0 1.6 1 4.9 4.9 0 0 0 1.9.3 2.9 2.9 0 0 0 1.5-.3ZM685.5 291a6.3 6.3 0 0 1-1.8.9 7.3 7.3 0 0 1-2.2.3 4.5 4.5 0 0 1-3.5-1.3 5.1 5.1 0 0 1-1.1-3.6v-6h-2.6v-2.6h2.6v-2.8l3.6-.5v3.3h3.8l-.3 2.7h-3.5v6a2 2 0 0 0 .4 1.3 1.8 1.8 0 0 0 1.3.4 4 4 0 0 0 2-.6Z"/><path d="M551.9 377.6q39 .2 78 .1t78-.2l44-.3a9 9 0 0 0 8.2-5.6 8.6 8.6 0 0 0 .6-4.6c-.2-1.8-1-4-2.5-5.2a47.6 47.6 0 0 0-8.8-5.7 58.3 58.3 0 0 0-9.6-3.6A87.4 87.4 0 0 0 721 350c-6.2-.3-12.5-.1-18.7 0l-20.8.5q-42.1 1.2-84.1 4.6-23.7 2-47.4 4.6c-2.4.2-4.5.8-6.3 2.6a9 9 0 0 0 0 12.7c1.6 1.5 4 3 6.3 2.7q35.7-4 71.6-6.4t71.8-3.2c12-.3 24.2-1 36.1.6l-2.4-.3a55.5 55.5 0 0 1 13.8 3.6l-2.1-1a38.7 38.7 0 0 1 8.1 4.8l-1.8-1.4.3.2 6.4-15.4q-39 .4-78 .5t-78 0h-44c-4.7 0-9.2 4-9 9a9.2 9.2 0 0 0 9 9Z" fill="#ab47bc"/><path class="f" d="m560.2 358 1 17.1h-3.3l-.2-7.3v-3.5l.2-2.5v-.2l-1.8 10.7h-2.8l-2-10.7a65.6 65.6 0 0 1 .3 5v1.4l-.1 7.2h-3.2l.9-17h3.8l1.8 11 1.6-11ZM571.5 362.5a5.3 5.3 0 0 1 2 2.4 9 9 0 0 1 .7 3.7 9.1 9.1 0 0 1-.7 3.7 5.2 5.2 0 0 1-2 2.4 5.7 5.7 0 0 1-3.2.9 5.8 5.8 0 0 1-3.1-.9 5.2 5.2 0 0 1-2-2.4 9.2 9.2 0 0 1-.7-3.7 8.8 8.8 0 0 1 .7-3.6 5.4 5.4 0 0 1 2-2.5 5.6 5.6 0 0 1 3.1-.9 5.7 5.7 0 0 1 3.2 1Zm-4.8 3a6.8 6.8 0 0 0-.5 3.1 7 7 0 0 0 .5 3.1 1.9 1.9 0 0 0 3.3 0 7 7 0 0 0 .5-3.1 6.7 6.7 0 0 0-.5-3 1.8 1.8 0 0 0-3.3 0ZM584.5 372.2a7.1 7.1 0 0 0 1.3-.8l1.6 2.5a6.7 6.7 0 0 1-2 1.2 6.8 6.8 0 0 1-5.8-.4 5.6 5.6 0 0 1-2.2-2.4 8.2 8.2 0 0 1-.7-3.6 8.3 8.3 0 0 1 .8-3.6 6 6 0 0 1 2.2-2.5 6 6 0 0 1 3.3-1 6.9 6.9 0 0 1 2.4.5 6.3 6.3 0 0 1 2 1.2l-1.5 2.3a4.4 4.4 0 0 0-2.7-1 2.3 2.3 0 0 0-2 1 5.3 5.3 0 0 0-.8 3.1 4.7 4.7 0 0 0 .8 3 2.4 2.4 0 0 0 2 .8 3.3 3.3 0 0 0 1.3-.3ZM590.4 356.9l3.5-.4V375h-3.5Zm7.6 5.2h3.8l-4 5.8 4.3 7.3H598l-4-7.2ZM607 369.8a3.5 3.5 0 0 0 1 2.2 2.7 2.7 0 0 0 2 .7 5.4 5.4 0 0 0 3-1l1.5 2a6.5 6.5 0 0 1-2 1.4 7.3 7.3 0 0 1-2.8.5 6.4 6.4 0 0 1-3.4-1 5.5 5.5 0 0 1-2.1-2.4 8.6 8.6 0 0 1-.7-3.6 8.8 8.8 0 0 1 .6-3.5 5.8 5.8 0 0 1 2-2.5 5.4 5.4 0 0 1 3.2-1 5.5 5.5 0 0 1 3 .8 5.3 5.3 0 0 1 2 2.4 8.6 8.6 0 0 1 .7 3.6 11.3 11.3 0 0 1 0 1.3Zm.7-4.8a4.4 4.4 0 0 0-.7 2.4h4.5c0-2-.8-3.1-2.2-3.1a1.9 1.9 0 0 0-1.6.7ZM624.5 356.5l3.5.4v18.3H625l-.2-1.5a4.4 4.4 0 0 1-1.4 1.4 3.7 3.7 0 0 1-2 .5 3.6 3.6 0 0 1-2.4-.9 5.2 5.2 0 0 1-1.5-2.4 12.4 12.4 0 0 1-.5-3.7 10.2 10.2 0 0 1 .6-3.6 5.5 5.5 0 0 1 1.7-2.5 3.9 3.9 0 0 1 2.5-.8 3.5 3.5 0 0 1 2.7 1.2Zm-3.3 9a6.7 6.7 0 0 0-.6 3.1 7.5 7.5 0 0 0 .5 3.2 1.5 1.5 0 0 0 1.4 1c.7 0 1.4-.6 2-1.6v-5.6a3.2 3.2 0 0 0-.8-.8 1.7 1.7 0 0 0-1-.3 1.7 1.7 0 0 0-1.5 1ZM655.1 366.2a5.4 5.4 0 0 1-2.3 1.8l4.2 7.1h-4.2l-3.5-6.5h-1v6.5h-3.7v-17h5a7.8 7.8 0 0 1 4.8 1.3 5.4 5.4 0 0 1 .8 6.8Zm-3.6-4.7a3 3 0 0 0-2-.6h-1.2v5h1.3a2.5 2.5 0 0 0 2-.7 2.7 2.7 0 0 0 .5-2 2.2 2.2 0 0 0-.6-1.7ZM661.6 369.8a3.5 3.5 0 0 0 .9 2.2 2.7 2.7 0 0 0 2 .7 5.4 5.4 0 0 0 3-1l1.5 2a6.5 6.5 0 0 1-2 1.4 7.4 7.4 0 0 1-2.8.5 6.4 6.4 0 0 1-3.4-.9 5.5 5.5 0 0 1-2.1-2.4 8.6 8.6 0 0 1-.7-3.7 8.8 8.8 0 0 1 .7-3.5 5.8 5.8 0 0 1 2-2.5 5.4 5.4 0 0 1 3.1-1 5.6 5.6 0 0 1 3 .9 5.3 5.3 0 0 1 2 2.3 8.6 8.6 0 0 1 .7 3.6 11.3 11.3 0 0 1 0 1.4Zm.6-4.8a4.5 4.5 0 0 0-.7 2.4h4.5q0-3.1-2.2-3.1a1.9 1.9 0 0 0-1.6.7ZM678.4 372.5a1 1 0 0 0 .5-1 1.2 1.2 0 0 0-.2-.6 2 2 0 0 0-.8-.6 18 18 0 0 0-1.8-.6 6.6 6.6 0 0 1-2.8-1.4 3.4 3.4 0 0 1-1-2.6 3.6 3.6 0 0 1 .6-2.1 4 4 0 0 1 1.8-1.4 7 7 0 0 1 2.8-.5 7.6 7.6 0 0 1 4.9 1.5l-1.4 2.3a6.8 6.8 0 0 0-1.6-.8 5.1 5.1 0 0 0-1.7-.3 2.6 2.6 0 0 0-1.3.3.8.8 0 0 0-.5.7.8.8 0 0 0 .3.6 2.8 2.8 0 0 0 .8.5l1.8.6a10.2 10.2 0 0 1 2.1.9 3.5 3.5 0 0 1 1.3 1.2 3.9 3.9 0 0 1 .4 2 3.7 3.7 0 0 1-.7 2.4 4.7 4.7 0 0 1-2 1.5 8 8 0 0 1-3 .5 8.3 8.3 0 0 1-3-.6 7 7 0 0 1-2.3-1.4l1.8-2.2a6 6 0 0 0 1.7 1 4.9 4.9 0 0 0 1.9.4 3 3 0 0 0 1.4-.3ZM695.7 363.5a10.2 10.2 0 0 1 1 5 10.9 10.9 0 0 1-.5 3.7 5.6 5.6 0 0 1-1.6 2.5 3.7 3.7 0 0 1-2.5.9 3.5 3.5 0 0 1-2.8-1.4v6l-3.6.4v-18.5h3.2l.1 1.4a4.7 4.7 0 0 1 1.6-1.4 3.8 3.8 0 0 1 1.8-.5 3.6 3.6 0 0 1 3.3 1.9Zm-5.5 1.4a3.8 3.8 0 0 0-1 1.1v5.5a3 3 0 0 0 .9 1 1.8 1.8 0 0 0 1 .2 1.6 1.6 0 0 0 1.5-1 7 7 0 0 0 .5-3 11.5 11.5 0 0 0-.2-2.6 2.4 2.4 0 0 0-.6-1.2 1.4 1.4 0 0 0-1-.4 1.7 1.7 0 0 0-1.1.4ZM707.7 362.5a5.3 5.3 0 0 1 2 2.4 8.8 8.8 0 0 1 .7 3.7 9.3 9.3 0 0 1-.7 3.7 5.3 5.3 0 0 1-2 2.4 5.7 5.7 0 0 1-3.1.9 5.8 5.8 0 0 1-3.2-.9 5.2 5.2 0 0 1-2-2.4 9.2 9.2 0 0 1-.7-3.7 8.8 8.8 0 0 1 .7-3.6 5.5 5.5 0 0 1 2-2.5 5.6 5.6 0 0 1 3.2-.9 5.7 5.7 0 0 1 3.1 1Zm-4.8 3a7 7 0 0 0-.5 3.1 7.2 7.2 0 0 0 .5 3.1 1.8 1.8 0 0 0 1.7 1 1.7 1.7 0 0 0 1.6-1 7 7 0 0 0 .5-3.1 6.8 6.8 0 0 0-.5-3 1.9 1.9 0 0 0-3.3 0ZM713 375.1v-13h3.1l.3 1.5a5.8 5.8 0 0 1 1.7-1.5 4.3 4.3 0 0 1 2-.5 3 3 0 0 1 2.4 1 4.3 4.3 0 0 1 1 3v9.5h-3.7v-8.5a6.1 6.1 0 0 0 0-1.2 1.2 1.2 0 0 0-.4-.7 1.1 1.1 0 0 0-.7-.2 1.8 1.8 0 0 0-1 .4 4.8 4.8 0 0 0-1.1 1v9.2ZM732.9 372.5a1 1 0 0 0 .5-1 1.1 1.1 0 0 0-.2-.6 2.1 2.1 0 0 0-.8-.6 18 18 0 0 0-1.9-.6 6.6 6.6 0 0 1-2.7-1.4 3.4 3.4 0 0 1-1-2.6 3.6 3.6 0 0 1 .6-2.1 4 4 0 0 1 1.8-1.4 7 7 0 0 1 2.8-.5 7.6 7.6 0 0 1 4.9 1.5l-1.4 2.3a6.8 6.8 0 0 0-1.7-.8 5.1 5.1 0 0 0-1.7-.3 2.6 2.6 0 0 0-1.3.3.8.8 0 0 0-.4.7.8.8 0 0 0 .2.6 2.8 2.8 0 0 0 .8.5l1.8.6a10.2 10.2 0 0 1 2.2.9 3.5 3.5 0 0 1 1.2 1.2 4 4 0 0 1 .5 2 3.7 3.7 0 0 1-.8 2.4 4.7 4.7 0 0 1-2 1.5 8 8 0 0 1-3 .5 8.3 8.3 0 0 1-3-.6 7 7 0 0 1-2.2-1.4l1.8-2.2a5.9 5.9 0 0 0 1.6 1 4.9 4.9 0 0 0 2 .4 3 3 0 0 0 1.4-.3ZM743.3 369.8a3.6 3.6 0 0 0 1 2.2 2.7 2.7 0 0 0 2 .7 5.4 5.4 0 0 0 3-1l1.5 2a6.7 6.7 0 0 1-2.2 1.4 7.3 7.3 0 0 1-2.7.5 6.4 6.4 0 0 1-3.4-.9 5.5 5.5 0 0 1-2.1-2.4 8.7 8.7 0 0 1-.7-3.7 8.8 8.8 0 0 1 .7-3.5 6 6 0 0 1 2-2.5 5.5 5.5 0 0 1 3.1-1 5.5 5.5 0 0 1 3 .9 5.2 5.2 0 0 1 2 2.3 8.6 8.6 0 0 1 .7 3.6 11.3 11.3 0 0 1 0 1.4Zm.7-4.8a4.4 4.4 0 0 0-.7 2.4h4.4q0-3.2-2.1-3.2a1.9 1.9 0 0 0-1.6.8Z"/><path class="m" d="M566 460.2q33.2-1.4 66.3-2 33-.7 66-.6l37.3.2a13.9 13.9 0 0 0 9.6-4 13.5 13.5 0 0 0 0-19 14.2 14.2 0 0 0-9.6-4q-33.1-.4-66.3-.2-33 .3-65.9 1.3-18.7.5-37.4 1.3a14.1 14.1 0 0 0-9.6 4 13.7 13.7 0 0 0-4 9.5c.2 3.4 1.4 7 4 9.5a13.7 13.7 0 0 0 9.6 4Z"/><path class="f" d="M572.6 444.2a5.5 5.5 0 0 1-2.3 1.8l4.1 7.2h-4.2l-3.4-6.5h-1v6.5H562v-17h5a7.8 7.8 0 0 1 4.9 1.2 4.7 4.7 0 0 1 1.6 3.9 4.8 4.8 0 0 1-.9 2.9Zm-3.6-4.7a3 3 0 0 0-2-.6h-1.2v5h1.4a2.5 2.5 0 0 0 1.8-.6 2.7 2.7 0 0 0 .6-2 2.3 2.3 0 0 0-.6-1.8ZM579 447.8a3.6 3.6 0 0 0 1 2.2 2.7 2.7 0 0 0 2 .7 5.4 5.4 0 0 0 3-1l1.5 2a6.5 6.5 0 0 1-2 1.4 7.3 7.3 0 0 1-2.8.5 6.3 6.3 0 0 1-3.4-1 5.5 5.5 0 0 1-2.1-2.4 9.5 9.5 0 0 1 0-7.1 5.8 5.8 0 0 1 2-2.5 5.4 5.4 0 0 1 3.1-1 5.5 5.5 0 0 1 3 .8 5.2 5.2 0 0 1 2 2.4 8.6 8.6 0 0 1 .7 3.5 11.4 11.4 0 0 1 0 1.4Zm.7-4.7a4.5 4.5 0 0 0-.7 2.3h4.4q0-3.1-2.2-3.1a1.9 1.9 0 0 0-1.5.8ZM599.7 449.4a2.4 2.4 0 0 0 .2 1 1.2 1.2 0 0 0 .6.6l-.7 2.6a4.8 4.8 0 0 1-1.9-.6 2.9 2.9 0 0 1-1-1.2 4.2 4.2 0 0 1-1.8 1.4 5.7 5.7 0 0 1-2.3.4 4.3 4.3 0 0 1-2.1-.5 3.5 3.5 0 0 1-1.4-1.5 4.5 4.5 0 0 1-.5-2.1 4 4 0 0 1 .7-2.4 4.3 4.3 0 0 1 2-1.5 8.6 8.6 0 0 1 3.1-.6h1.6v-.4c0-1.4-.8-2-2.3-2a8.3 8.3 0 0 0-1.6.1 12.4 12.4 0 0 0-1.7.5l-.9-2.5a13.3 13.3 0 0 1 2.4-.8 11.7 11.7 0 0 1 2.3-.2 5.8 5.8 0 0 1 4 1.2 4.4 4.4 0 0 1 1.3 3.4Zm-4.4 1a2.5 2.5 0 0 0 1-1v-2.2h-1a3.9 3.9 0 0 0-2.1.5 1.7 1.7 0 0 0-.7 1.5 1.6 1.6 0 0 0 .4 1.2 1.6 1.6 0 0 0 1.2.4 2.3 2.3 0 0 0 1.2-.4ZM609.5 449a1.4 1.4 0 0 0 .4 1.2 1.7 1.7 0 0 0 1.1.3 4.3 4.3 0 0 0 1.7-.4l.9 2.6a7 7 0 0 1-3.5.9 3.8 3.8 0 0 1-3.2-1.3 5.8 5.8 0 0 1-1-3.7v-11h-3.5v-2.7h7.1ZM640.7 444.2a5.5 5.5 0 0 1-2.3 1.8l4.2 7.2h-4.3l-3.4-6.5h-1v6.5h-3.7v-17h5a7.8 7.8 0 0 1 4.8 1.2 4.7 4.7 0 0 1 1.6 3.9 4.8 4.8 0 0 1-.9 2.9Zm-3.6-4.7a3 3 0 0 0-2-.6h-1.2v5h1.3a2.5 2.5 0 0 0 1.9-.6 2.7 2.7 0 0 0 .6-2 2.2 2.2 0 0 0-.6-1.8ZM647.2 447.8a3.5 3.5 0 0 0 .9 2.2 2.7 2.7 0 0 0 2 .8 5.4 5.4 0 0 0 3-1.1l1.5 2.1a6.5 6.5 0 0 1-2.1 1.3 7.3 7.3 0 0 1-2.7.5 6.3 6.3 0 0 1-3.4-.9 5.4 5.4 0 0 1-2.1-2.4 8.6 8.6 0 0 1-.8-3.6 8.8 8.8 0 0 1 .7-3.6 5.8 5.8 0 0 1 2-2.5 5.4 5.4 0 0 1 3.2-1 5.5 5.5 0 0 1 3 .9 5.2 5.2 0 0 1 2 2.3 8.6 8.6 0 0 1 .7 3.6v1.4Zm.6-4.7a4.5 4.5 0 0 0-.7 2.3h4.4c0-2-.7-3.1-2.1-3.1a1.9 1.9 0 0 0-1.6.8ZM664 450.5a1 1 0 0 0 .5-1 1.1 1.1 0 0 0-.2-.6 2 2 0 0 0-.8-.5 16.5 16.5 0 0 0-1.8-.7 6.6 6.6 0 0 1-2.8-1.4 3.4 3.4 0 0 1-1-2.6 3.7 3.7 0 0 1 .6-2 4 4 0 0 1 1.8-1.5 7.1 7.1 0 0 1 2.8-.5 7.7 7.7 0 0 1 5 1.6l-1.5 2.3a7.6 7.6 0 0 0-1.6-.9 5.1 5.1 0 0 0-1.8-.2 2.6 2.6 0 0 0-1.3.2.8.8 0 0 0-.4.8.8.8 0 0 0 .2.5 2.2 2.2 0 0 0 .8.5 18 18 0 0 0 1.9.6 9.8 9.8 0 0 1 2 1 3.6 3.6 0 0 1 1.4 1.2 4 4 0 0 1 .4 2 3.7 3.7 0 0 1-.7 2.3 4.6 4.6 0 0 1-2.1 1.5 8.2 8.2 0 0 1-2.9.5 8.4 8.4 0 0 1-3-.5 7 7 0 0 1-2.3-1.5l1.8-2.2a6.4 6.4 0 0 0 1.7 1 5 5 0 0 0 1.9.4 2.9 2.9 0 0 0 1.4-.3ZM681.3 441.5a10.2 10.2 0 0 1 1 5.1 11 11 0 0 1-.5 3.6 5.7 5.7 0 0 1-1.6 2.5 3.7 3.7 0 0 1-2.5.9 3.5 3.5 0 0 1-2.8-1.4v6l-3.6.4v-18.5h3.2l.1 1.5a4.7 4.7 0 0 1 1.6-1.5 3.7 3.7 0 0 1 1.8-.4 3.6 3.6 0 0 1 3.3 1.8Zm-5.5 1.4a3.8 3.8 0 0 0-1 1.2v5.5a2.7 2.7 0 0 0 .9.9 1.6 1.6 0 0 0 1 .2 1.6 1.6 0 0 0 1.5-1 7 7 0 0 0 .5-3 11.5 11.5 0 0 0-.2-2.6 2.4 2.4 0 0 0-.6-1.2 1.4 1.4 0 0 0-1-.4 1.7 1.7 0 0 0-1.1.4ZM693.3 440.5a5.4 5.4 0 0 1 2 2.4 10.2 10.2 0 0 1 0 7.5 5.3 5.3 0 0 1-2 2.4 5.7 5.7 0 0 1-3.2.8 5.8 5.8 0 0 1-3.1-.8 5.2 5.2 0 0 1-2-2.4 9.3 9.3 0 0 1-.7-3.8 9 9 0 0 1 .7-3.6 5.6 5.6 0 0 1 2-2.4 6.2 6.2 0 0 1 6.3 0Zm-4.8 3a9.6 9.6 0 0 0 0 6.3 1.7 1.7 0 0 0 1.6 1 1.7 1.7 0 0 0 1.7-1 7 7 0 0 0 .5-3.2 6.8 6.8 0 0 0-.5-3 1.8 1.8 0 0 0-3.3 0ZM698.5 453.2v-13h3.2l.2 1.4a5.7 5.7 0 0 1 1.7-1.5 4.4 4.4 0 0 1 2-.4 3 3 0 0 1 2.5 1 4.3 4.3 0 0 1 .9 2.8v9.6h-3.6v-8.4a6 6 0 0 0-.1-1.3 1.1 1.1 0 0 0-.4-.6 1 1 0 0 0-.7-.3 1.8 1.8 0 0 0-1 .4 5.2 5.2 0 0 0-1 1.1v9.2ZM718.5 450.5a1 1 0 0 0 .5-1 1.1 1.1 0 0 0-.2-.6 2 2 0 0 0-.8-.5 16.5 16.5 0 0 0-1.9-.7 6.7 6.7 0 0 1-2.8-1.4 3.4 3.4 0 0 1-1-2.6 3.7 3.7 0 0 1 .7-2 4 4 0 0 1 1.7-1.5 7.1 7.1 0 0 1 2.9-.5 7.7 7.7 0 0 1 4.9 1.6l-1.5 2.3a7.6 7.6 0 0 0-1.6-.9 5.1 5.1 0 0 0-1.7-.2 2.6 2.6 0 0 0-1.3.2.8.8 0 0 0-.4.8.8.8 0 0 0 .2.5 2.2 2.2 0 0 0 .8.5 18.5 18.5 0 0 0 1.8.6 10 10 0 0 1 2.2.9 3.5 3.5 0 0 1 1.3 1.3 4 4 0 0 1 .4 2 3.7 3.7 0 0 1-.7 2.3 4.6 4.6 0 0 1-2 1.5 8.2 8.2 0 0 1-3 .5 8.4 8.4 0 0 1-3-.6 7 7 0 0 1-2.3-1.4l1.8-2.2a6.4 6.4 0 0 0 1.7 1 5 5 0 0 0 1.9.4 2.9 2.9 0 0 0 1.4-.3ZM728.9 447.8a3.5 3.5 0 0 0 1 2.2 2.8 2.8 0 0 0 2 .8 5.3 5.3 0 0 0 3-1.1l1.4 2.1a6.5 6.5 0 0 1-2 1.3 7.4 7.4 0 0 1-2.8.5 6.3 6.3 0 0 1-3.4-.9 5.4 5.4 0 0 1-2.1-2.4 9.4 9.4 0 0 1 0-7.2 5.8 5.8 0 0 1 2-2.5 5.3 5.3 0 0 1 3.2-1 5.5 5.5 0 0 1 3 .9 5.2 5.2 0 0 1 2 2.3 8.6 8.6 0 0 1 .6 3.6 11.4 11.4 0 0 1 0 1.4Zm.6-4.7a4.5 4.5 0 0 0-.7 2.3h4.5q0-3.1-2.2-3.1a1.9 1.9 0 0 0-1.6.8Z"/></svg>